<?xml version="1.0" encoding="UTF-8"?>
<svg width="92px" height="92px" viewBox="0 0 92 92" version="1.1" xmlns="http://www.w3.org/2000/svg" xmlns:xlink="http://www.w3.org/1999/xlink">
    <!-- Generator: Sketch 61.2 (89653) - https://sketch.com -->
    <title>tick</title>
    <desc>Created with Sketch.</desc>
    <g stroke="none" stroke-width="1" fill="none" fill-rule="evenodd">
        <g transform="translate(-674.000000, -564.000000)" fill-rule="nonzero">
            <g transform="translate(460.000000, 512.000000)">
                <g transform="translate(214.000000, 52.000000)">
                    <path d="M81.959928,82.9576032 C67.8636314,94.3401396 23.8487345,94.3401396 10.040072,82.9576032 C-4.05622469,71.5750669 -2.61785184,22.9148191 10.040072,10.1094908 C22.6979958,-2.69583759 69.3020042,-2.69583759 81.959928,10.1094908 C94.6178518,22.9148191 96.0562247,71.575267 81.959928,82.9576032 Z" fill="#8DC640"></path>
                    <g opacity="0.2" transform="translate(0.000000, 0.505495)" fill="#FFFFFF">
                        <path d="M46.3312,62.3583529 C33.6780659,72.268905 19.5871033,77.3657376 6.35891868,77.6488507 C-3.41855824,61.2257014 -1.40547692,21.3005792 10.0973538,9.69114932 C20.4498813,-0.785628959 52.9452923,-2.767819 71.6374681,3.74477828 C76.2384791,22.4332308 66.7487297,46.2183167 46.3312,62.3583529 Z"></path>
                    </g>
                    <path d="M39.89021,71.2747253 C37.8767965,71.2747253 35.8635854,70.4223954 34.7130923,68.7179354 L18.6065939,48.2636163 C16.3056078,45.4227831 16.8809554,41.4455765 19.757087,39.17283 C22.6332185,36.9000835 26.6598431,37.46837 28.9608292,40.3092033 L39.89021,54.229526 L64.0501598,23.264004 C66.3511459,20.4231707 70.3777705,19.8548842 73.253902,22.1276307 C76.1300336,24.4003772 76.7053812,28.3775837 74.4043951,31.218417 L45.0673276,68.7179354 C43.6292619,70.138352 41.9036234,71.2747253 39.89021,71.2747253 Z" fill="#FFFFFF"></path>
                </g>
            </g>
        </g>
    </g>
</svg>
