<svg xmlns="http://www.w3.org/2000/svg" viewBox="0 0 100 100">
  <defs>
    <style>
      .cls-1 {
        fill: #3771bf;
      }

      .cls-2 {
        fill: #5091de;
      }

      .cls-3 {
        fill: #7ec4fc;
      }
    </style>
  </defs>
  <g data-name="Layer 3">
    <g>
      <path class="cls-1" d="M76.6,68.3a5,5,0,0,1-3.5,1.4H26.9a5,5,0,0,1-3.5-1.4l.2-3.9L38.3,49.9l3.5.2,1.6-1.6H57.1l1.1,1.6h4.3L76.1,63.5Z"/>
      <path class="cls-2" d="M41.6,46.3,26.9,31.7H23.4A5.3,5.3,0,0,0,22,35.2V64.8a5.3,5.3,0,0,0,1.4,3.5L41.8,50.1Z"/>
      <path class="cls-2" d="M76.6,31.7H73.1L58.7,46l-.5,4.1L76.6,68.3A5.3,5.3,0,0,0,78,64.8V35.2A5.3,5.3,0,0,0,76.6,31.7Z"/>
      <path class="cls-3" d="M76.6,31.7l-22,21.9a6.3,6.3,0,0,1-9.2,0l-22-21.9a5,5,0,0,1,3.5-1.4H73.1A5,5,0,0,1,76.6,31.7Z"/>
    </g>
  </g>
</svg>
