<svg xmlns="http://www.w3.org/2000/svg" viewBox="0 0 800 600">
  <defs>
    <style>
      .cls-1 {
        fill: #e4f0f9;
      }

      .cls-2 {
        fill: #06c;
      }

      .cls-3 {
        fill: #fff;
      }

      .cls-4 {
        fill: #78bef9;
      }

      .cls-10, .cls-11, .cls-14, .cls-15, .cls-17, .cls-5 {
        fill: none;
        stroke-linecap: round;
        stroke-width: 3px;
      }

      .cls-5 {
        stroke: #0e1935;
      }

      .cls-11, .cls-14, .cls-15, .cls-5 {
        stroke-miterlimit: 10;
      }

      .cls-6 {
        fill: #1389ea;
      }

      .cls-7 {
        fill: #badcf7;
      }

      .cls-8 {
        fill: #d7e8f4;
      }

      .cls-9 {
        fill: #65abef;
      }

      .cls-10, .cls-11, .cls-15 {
        stroke: #1389ea;
      }

      .cls-10, .cls-17 {
        stroke-linejoin: round;
      }

      .cls-12 {
        fill: #1c2f60;
      }

      .cls-13 {
        fill: #0e1935;
      }

      .cls-14 {
        stroke: #14014d;
      }

      .cls-15 {
        stroke-dasharray: 8 12;
      }

      .cls-16 {
        fill: #1b8fef;
      }

      .cls-17 {
        stroke: #78bef9;
      }
    </style>
  </defs>
  <g data-name="Layer 1">
    <g>
      <circle class="cls-1" cx="306" cy="413.4" r="55.7"/>
      <g>
        <g>
          <ellipse class="cls-2" cx="258.9" cy="380.2" rx="75.6" ry="75.6" transform="translate(-51.6 40.8) rotate(-8.2)"/>
          <circle class="cls-3" cx="259.2" cy="366.7" r="29.7" transform="translate(-49.6 40.7) rotate(-8.2)"/>
          <path class="cls-4" d="M304.6,440.3a75.4,75.4,0,0,1-94.9-2.8c4.3-24.7,15.8-41.3,26.6-52a29.5,29.5,0,0,0,44.7,1.3C291.2,398.1,301.7,415.4,304.6,440.3Z"/>
        </g>
        <path class="cls-5" d="M317.4,415.2a74.7,74.7,0,1,0-42.4,33"/>
      </g>
      <g>
        <circle class="cls-4" cx="90.5" cy="212.7" r="4.3"/>
        <circle class="cls-4" cx="107.7" cy="212.7" r="4.3"/>
        <circle class="cls-4" cx="124.9" cy="212.7" r="4.3" transform="translate(-41.4 30.5) rotate(-12)"/>
      </g>
      <g>
        <rect class="cls-1" x="454.7" y="103.5" width="40.7" height="32.94" rx="10"/>
        <rect class="cls-1" x="422.3" y="90.6" width="23.6" height="19.12" rx="5.8"/>
        <path class="cls-1" d="M563.9,109.6H508.4a3.5,3.5,0,0,0,0,7h55.5a3.5,3.5,0,0,0,0-7Z"/>
        <path class="cls-1" d="M525.7,123.5H508.4a3.5,3.5,0,1,0,0,6.9h17.3a3.5,3.5,0,1,0,0-6.9Z"/>
      </g>
      <g>
        <circle class="cls-1" cx="669.4" cy="174.5" r="50.6"/>
        <circle class="cls-4" cx="669.4" cy="174.5" r="41.6"/>
        <path class="cls-3" d="M697.3,162.2v5.3l-14.7,6.9-13.2,6.2-13.3-6.2-14.7-6.9v-5.3a6.3,6.3,0,0,1,6.3-6.3h43.4A6.3,6.3,0,0,1,697.3,162.2Z"/>
        <path class="cls-2" d="M697.3,190v1.1a6.2,6.2,0,0,1-6.2,6.2H647.7a6.3,6.3,0,0,1-6.3-6.2V190l14.7-15.6,13.3,6.2,13.2-6.2Z"/>
        <polygon class="cls-6" points="656.1 174.4 641.4 190 641.4 167.5 656.1 174.4"/>
        <polygon class="cls-6" points="697.3 167.5 697.3 190 682.6 174.4 697.3 167.5"/>
        <circle class="cls-7" cx="617.1" cy="127.7" r="5.3"/>
        <circle class="cls-4" cx="606.5" cy="141" r="2.7"/>
        <circle class="cls-8" cx="697.8" cy="157.7" r="6.1"/>
      </g>
      <g>
        <path class="cls-4" d="M388.8,255.2H325.4a30.9,30.9,0,0,0-30.9,30.9h0A30.9,30.9,0,0,0,325.4,317a23.7,23.7,0,0,1-12.8,21.1,23,23,0,0,0,10.8,2.7A23.8,23.8,0,0,0,347.1,317h41.7a30.9,30.9,0,0,0,30.9-30.9h0A30.9,30.9,0,0,0,388.8,255.2Z"/>
        <path class="cls-9" d="M419.7,286.1A30.9,30.9,0,0,1,388.8,317H347.1a23.8,23.8,0,0,1-23.7,23.8,23,23,0,0,1-10.8-2.7,22,22,0,0,0,5.1-3.5h.5A23.9,23.9,0,0,0,342,310.8h41.6a30.9,30.9,0,0,0,26.2-47.4l.9.8A30.9,30.9,0,0,1,419.7,286.1Z"/>
        <circle class="cls-3" cx="323.8" cy="289.8" r="5.6"/>
        <circle class="cls-3" cx="346.2" cy="289.8" r="5.6"/>
        <circle class="cls-3" cx="368.6" cy="289.8" r="5.6"/>
        <path class="cls-10" d="M368.6,317h20.2a30.7,30.7,0,0,0,26.8-15.5"/>
        <path class="cls-10" d="M312.6,338.1a23,23,0,0,0,10.8,2.7A23.8,23.8,0,0,0,347.1,317h7.4"/>
        <path class="cls-10" d="M297.8,300.1A31,31,0,0,0,325.4,317"/>
      </g>
      <g>
        <path class="cls-9" d="M200.1,256.4v92.4a13.9,13.9,0,0,1-13.9,13.8H93.9a14,14,0,0,1-12.5-7.8,14.1,14.1,0,0,0,6.1,1.5h92.4a13.9,13.9,0,0,0,13.8-13.9V250a14.3,14.3,0,0,0-1.4-6.1A14,14,0,0,1,200.1,256.4Z"/>
        <path class="cls-4" d="M193.7,250v92.4a13.9,13.9,0,0,1-13.8,13.9H87.5a14.1,14.1,0,0,1-6.1-1.5,13.6,13.6,0,0,1-1.4-6V256.4a13.9,13.9,0,0,1,13.9-13.9h92.3a13.7,13.7,0,0,1,6.1,1.4A14.3,14.3,0,0,1,193.7,250Z"/>
        <path class="cls-9" d="M160.7,277.1H146.1v-8.4a6.1,6.1,0,0,0-6.1-6.1h0a6,6,0,0,0-6,6.1v8.4H114.8a5.3,5.3,0,0,0-5.3,5.3v19.8h0v4.6a5.3,5.3,0,0,0,5.3,5.3H134v24.4a6,6,0,0,0,6,6h0a6,6,0,0,0,6.1-6V312.1h19.1a5.3,5.3,0,0,0,5.3-5.3V282.4a5.3,5.3,0,0,0-5.3-5.3Zm-41.3,23v-11a2.1,2.1,0,0,1,2.1-2.1H134v15.2H121.5A2.1,2.1,0,0,1,119.4,300.1Zm26.7,2.1V287h12.5a2.1,2.1,0,0,1,2.1,2.1v11a2.1,2.1,0,0,1-2.1,2.1Z"/>
        <path class="cls-11" d="M158.3,355.2H101.1a13.9,13.9,0,0,1-13.9-13.9V249a13.9,13.9,0,0,1,13.9-13.9h92.3A13.9,13.9,0,0,1,207.3,249v92.3a13.9,13.9,0,0,1-13.9,13.9"/>
        <line class="cls-11" x1="183.7" y1="355.2" x2="170.1" y2="355.2"/>
        <path class="cls-3" d="M160.7,273.9H146.1v-8.4a6,6,0,0,0-6.1-6h0a6,6,0,0,0-6,6v8.4H114.8a5.3,5.3,0,0,0-5.3,5.3V299h0v4.6a5.3,5.3,0,0,0,5.3,5.3H134v24.4a6,6,0,0,0,6,6h0a6,6,0,0,0,6.1-6V308.9h19.1a5.3,5.3,0,0,0,5.3-5.3V279.2a5.3,5.3,0,0,0-5.3-5.3Zm-41.3,23v-11a2.1,2.1,0,0,1,2.1-2.1H134V299H121.5A2.1,2.1,0,0,1,119.4,296.9Zm26.7,2.1V283.8h12.5a2.1,2.1,0,0,1,2.1,2.1v11a2.1,2.1,0,0,1-2.1,2.1Z"/>
      </g>
      <g>
        <g>
          <ellipse class="cls-4" cx="551.5" cy="332.8" rx="110" ry="110" transform="translate(-5.5 656.3) rotate(-61.3)"/>
          <ellipse class="cls-3" cx="551.7" cy="313.2" rx="43.2" ry="43.2" transform="translate(11.8 646.2) rotate(-61.3)"/>
          <path class="cls-8" d="M619.9,418.9a109.7,109.7,0,0,1-138.1-1.1c5.5-36.1,21.7-60.7,37.1-76.5a43.1,43.1,0,0,0,65.1.5C599.2,357.8,615,382.7,619.9,418.9Z"/>
        </g>
        <path class="cls-11" d="M606.9,424.7c1.9-1.3,3.7-2.7,5.6-4.2"/>
        <path class="cls-11" d="M651.7,354.2a110,110,0,1,0-89.2,89"/>
      </g>
      <g>
        <path class="cls-12" d="M306.4,155.9H501.2a41.3,41.3,0,0,1,41.3,41.3h0a41.3,41.3,0,0,1-41.3,41.4,31.6,31.6,0,0,0,17.2,28.2,31.7,31.7,0,0,1-46.2-28.2H306.4A41.4,41.4,0,0,1,265,197.2h0A41.4,41.4,0,0,1,306.4,155.9Z"/>
        <path class="cls-13" d="M480.7,230.1H314.9a41.4,41.4,0,0,1-41.4-41.3h0a41.4,41.4,0,0,1,8.2-24.7A41.3,41.3,0,0,0,265,197.2h0a41.4,41.4,0,0,0,41.4,41.4H472.2a31.7,31.7,0,0,0,46.2,28.2,29.4,29.4,0,0,1-7.1-5A31.8,31.8,0,0,1,480.7,230.1Z"/>
        <path class="cls-3" d="M286.7,208.5a47.3,47.3,0,0,0,22-2.9,44.1,44.1,0,0,0,9.8-5.3c2.8-1.9,5.7-4.4,6.2-8,.7-5.9-5.2-11.6-11-9.4s-8,11.8-7.2,18.4c.4,3.2,1.6,6.4,4.8,7.8s6.7.5,9.6-1a46.7,46.7,0,0,0,8.4-6.2c2.6-2.3,5.5-4.7,8.9-5.6,1.6-.5,3.3-.5,4.5.9a11,11,0,0,1,1.7,4c.8,2.9,1.6,6.2,4.4,8s5.7.4,7.6-2,3-4.6,6.1-4.7a5.8,5.8,0,0,1,6,3.5c.7,1.5.9,3.1,2,4.4a5,5,0,0,0,4.3,1.6,9,9,0,0,0,4.6-2.2c1.4-1.1,2.5-2.6,4.1-3.3s3,.3,4.5,1.3a4.8,4.8,0,0,0,4.2.7,3.1,3.1,0,0,0,2.4-3c-.1-1.9-3.1-1.9-3,0s-2.2-.3-2.4-.5a7.7,7.7,0,0,0-4.3-1.9c-3.4,0-5.4,2.9-7.8,4.7s-2.5,1.7-3.7,1.1-1.5-2.7-2-3.9a8.8,8.8,0,0,0-5.2-5,10,10,0,0,0-7.2.3c-2.4,1.1-3.5,3.5-5.2,5.4s-1.5,1.5-2.6,1.3-2.2-1.7-2.8-2.9-1.2-5.3-2.6-7.7c-3.8-6.4-11.5-2.2-15.9,1.1-2.4,1.9-4.7,4.1-7.2,5.9s-5.2,3.4-8.2,3.4-4.6-2.7-5-5.5a24.6,24.6,0,0,1,.5-10.1c.8-2.6,2.9-5.4,5.8-5.8s4.5,1.5,5.4,3.5-.4,5.8-2.8,7.8a38,38,0,0,1-9.7,5.7,44.9,44.9,0,0,1-22,3.1c-2-.3-1.9,2.7,0,3Z"/>
        <path class="cls-3" d="M408.2,209.5a1.5,1.5,0,0,0,0-3,1.5,1.5,0,0,0,0,3Z"/>
        <path class="cls-3" d="M423.1,211.3A21,21,0,0,0,444,196.9a1.4,1.4,0,0,0-.4-1.4c-3.6-3.2-9.5-1.4-11.1,3s1.9,10.2,6.8,11.7,10.6-.4,14.3-4a16.7,16.7,0,0,0,4.1-6.9c.8-2.8,1.1-6,2.6-8.6s3.6-4.3,6-3.3,2.7,3.4,2.8,5.4-1.2,5.8-1.6,8.7a10.6,10.6,0,0,0,1.3,7.4,6.6,6.6,0,0,0,5.9,3.1c2.6-.3,4.6-2.1,6.1-4s2.7-4.6,4.5-6.5,4-2.9,6.3-1.8,2.1,4.8,2.9,6.9a6,6,0,0,0,6,3.9,7,7,0,0,0,6.2-4.2c1.4-2.9.9-6.2-.4-9s-3.3-.3-2.6,1.5,1.3,5-.1,7-3.2,2.3-4.8,1.4-2-3.5-2.4-5.2-1.5-4-3.5-4.9c-4.5-2.3-9,1-11.6,4.6s-5.1,9.9-9.1,6.6-.7-9.8-.2-13.9-1.1-9.2-5.6-10.1-8.6,3.6-10,7.8-1.1,5.5-2.2,8.1a13.6,13.6,0,0,1-4.1,5.1c-3.9,2.8-11,3.9-14-.8-1.2-1.9-1.6-4.7.1-6.4a4,4,0,0,1,5.3-.5l-.4-1.5a17.9,17.9,0,0,1-18,12.2c-1.9-.1-1.9,2.9,0,3Z"/>
        <path class="cls-3" d="M520.5,209.5a1.5,1.5,0,0,0,0-3,1.5,1.5,0,0,0,0,3Z"/>
        <line class="cls-11" x1="426.9" y1="231.9" x2="434.1" y2="231.9"/>
        <line class="cls-11" x1="313.1" y1="231.9" x2="413.9" y2="231.9"/>
        <path class="cls-11" d="M502,232a35,35,0,0,0,27.6-13.4"/>
        <path class="cls-11" d="M306.7,160.2a35.2,35.2,0,0,0-27.6,13.4"/>
      </g>
      <g>
        <rect class="cls-2" x="607.7" y="246.2" width="72.2" height="72.18" rx="12.4" transform="translate(-0.5 1.1) rotate(-0.1)"/>
        <g>
          <polygon class="cls-3" points="639 275.1 639 269.9 621.3 269.9 621.3 269.9 621.3 275.1 621.3 291.6 621.3 296.8 621.3 296.8 626.5 296.7 626.5 296.7 639.1 296.7 639.1 291.6 626.5 291.6 626.5 285.4 637.4 285.4 637.4 280.2 626.5 280.3 626.4 275.1 639 275.1"/>
          <polygon class="cls-3" points="661.1 269.9 661.1 287.5 651.2 269.9 646 269.9 646.1 296.7 651.2 296.7 651.2 279.1 661.1 296.7 666.3 296.7 666.2 269.9 661.1 269.9"/>
        </g>
        <rect class="cls-14" x="611.8" y="242.1" width="72.2" height="72.18" rx="12.4" transform="translate(-0.5 1.2) rotate(-0.1)"/>
      </g>
      <g>
        <g>
          <rect class="cls-7" x="305.5" y="455.1" width="127.3" height="54.3" rx="16.5"/>
          <rect class="cls-3" x="352.4" y="470.4" width="67.5" height="7.5" rx="3.7"/>
          <rect class="cls-3" x="376.6" y="485.4" width="22.6" height="7.5" rx="3.7"/>
          <rect class="cls-3" x="352.4" y="485.4" width="18" height="7.5" rx="3.7"/>
          <circle class="cls-3" cx="329.9" cy="479.9" r="11.3"/>
        </g>
        <rect class="cls-11" x="299.3" y="451" width="127.3" height="54.3" rx="16.5"/>
      </g>
      <g>
        <ellipse class="cls-7" cx="688.7" cy="341.8" rx="9.7" ry="9.7" transform="translate(311.6 1011.8) rotate(-87)"/>
        <path class="cls-15" d="M688.1,356S684,389.8,664,420.4c-17.5,26.6-49.6,43.1-49.6,43.1"/>
        <path class="cls-2" d="M587,456.6c-13.5,5.9-35.9,15.2-50,19.2-25.1,7.2-53.4,13.1-55.1,13.5h-.1c1-.6,38.3-20.3,55.5-32.1s27.9-18.4,27.9-18.4,6.7-2,16.8,10.1A30.5,30.5,0,0,1,587,456.6Z"/>
        <path class="cls-16" d="M610,497.1a375,375,0,0,1-59.7,2.2c-30.5-1.2-68.5-10-68.5-10h.1c1.7-.4,30-6.3,55.1-13.5,14.1-4,36.5-13.3,50-19.2l11.8-5.1s7.4,6.1,11.6,20.8S610,497.1,610,497.1Z"/>
        <path class="cls-17" d="M579.1,467.7l1.8-.8"/>
        <path class="cls-17" d="M536.1,482.2a308.6,308.6,0,0,0,34.8-10.9"/>
        <path class="cls-17" d="M512,487.6s5.4-1,13.6-2.9"/>
        <ellipse class="cls-6" cx="688.7" cy="341.8" rx="4" ry="4" transform="translate(311.6 1011.8) rotate(-87)"/>
      </g>
      <g>
        <path class="cls-15" d="M188,177.7s23.3-55,120.1-60.4"/>
        <path class="cls-16" d="M370.9,136.2s-44.3-2.3-56.7,5.9a50.5,50.5,0,0,1,3.2-24.7,29.2,29.2,0,0,1,9.1-.7,50.4,50.4,0,0,1,16.6,3.9A137.8,137.8,0,0,1,370.9,136.2Z"/>
        <path class="cls-2" d="M370.9,136.2a137.8,137.8,0,0,0-27.8-15.6,50.4,50.4,0,0,0-16.6-3.9,59.8,59.8,0,0,1,5.4-11.6S357.6,111.4,370.9,136.2Z"/>
      </g>
      <ellipse class="cls-7" cx="182" cy="194" rx="9.7" ry="9.7" transform="translate(-21.1 365.7) rotate(-87)"/>
      <ellipse class="cls-6" cx="182" cy="194" rx="4" ry="4" transform="translate(-21.1 365.7) rotate(-87)"/>
      <circle class="cls-1" cx="454.9" cy="452.5" r="14.6"/>
    </g>
  </g>
</svg>
