<svg xmlns="http://www.w3.org/2000/svg" viewBox="0 0 100 100">
  <defs>
    <style>
      .cls-1 {
        fill: #e6ebed;
      }

      .cls-2 {
        fill: #5091de;
      }

      .cls-3 {
        fill: #3771bf;
      }

      .cls-4 {
        fill: none;
        stroke: #bac4c6;
        stroke-linecap: round;
        stroke-miterlimit: 10;
      }

      .cls-5 {
        fill: #7ec4fc;
      }
    </style>
  </defs>
  <g data-name="Layer 3">
    <g>
      <g>
        <path class="cls-1" d="M74.3,41.3H25.7a2.2,2.2,0,0,0-2.2,2.2V69.9a6.7,6.7,0,0,0,6.6,6.6H69.9a6.7,6.7,0,0,0,6.6-6.6V43.5A2.2,2.2,0,0,0,74.3,41.3Z"/>
        <path class="cls-2" d="M69.9,30.1H30.1a6.7,6.7,0,0,0-6.6,6.7v6.7h53V36.8A6.7,6.7,0,0,0,69.9,30.1Z"/>
        <g>
          <path class="cls-3" d="M36.8,23.5H34.5a2.2,2.2,0,0,0-2.2,2.2v8.8a2.2,2.2,0,0,0,2.2,2.3h2.3A2.2,2.2,0,0,0,39,34.5V25.7A2.2,2.2,0,0,0,36.8,23.5Z"/>
          <path class="cls-3" d="M65.5,23.5H63.2A2.2,2.2,0,0,0,61,25.7v8.8a2.2,2.2,0,0,0,2.2,2.3h2.3a2.2,2.2,0,0,0,2.2-2.3V25.7A2.2,2.2,0,0,0,65.5,23.5Z"/>
        </g>
      </g>
      <rect class="cls-3" x="23.5" y="41.5" width="53" height="2.15"/>
      <line class="cls-4" x1="27.7" y1="58.5" x2="72.3" y2="58.5"/>
      <g>
        <line class="cls-4" x1="41" y1="71.7" x2="41" y2="46.3"/>
        <line class="cls-4" x1="59" y1="71.7" x2="59" y2="46.3"/>
      </g>
      <rect class="cls-5" x="44.7" y="47.4" width="10.6" height="8.48" rx="2.1"/>
      <rect class="cls-3" x="62.2" y="61.7" width="10.6" height="8.48" rx="2.1"/>
      <rect class="cls-3" x="27.2" y="47.4" width="10.6" height="8.48" rx="2.1"/>
    </g>
  </g>
</svg>
