<svg xmlns="http://www.w3.org/2000/svg" viewBox="0 0 266.7 200">
  <defs>
    <style>
      .cls-1, .cls-19 {
        fill: #80949e;
      }

      .cls-2 {
        fill: #f0f5f7;
      }

      .cls-3 {
        fill: #dae2e5;
      }

      .cls-4 {
        fill: #117fd1;
      }

      .cls-13, .cls-5 {
        fill: #fff;
      }

      .cls-6 {
        fill: #b7c2c4;
      }

      .cls-7 {
        fill: #1768ba;
      }

      .cls-8 {
        fill: #cbd5d8;
      }

      .cls-9 {
        fill: #4386d6;
      }

      .cls-10 {
        fill: #2b48a5;
      }

      .cls-11 {
        fill: #dfe7ea;
      }

      .cls-12 {
        fill: #5dade8;
      }

      .cls-13 {
        opacity: 0.5;
      }

      .cls-14, .cls-16 {
        fill: none;
        stroke-linecap: round;
        stroke-linejoin: round;
        stroke-width: 3px;
      }

      .cls-14 {
        stroke: #fff;
      }

      .cls-15 {
        fill: #347dbf;
      }

      .cls-15, .cls-19 {
        opacity: 0.4;
      }

      .cls-16 {
        stroke: #80949e;
      }

      .cls-17 {
        fill: #5ea2e5;
      }

      .cls-18 {
        fill: #0f66bc;
      }

      .cls-20 {
        fill: #335cc1;
      }

      .cls-21 {
        fill: #0a5ca0;
      }
    </style>
  </defs>
  <g data-name="Layer 4">
    <g>
      <path class="cls-1" d="M71.5,146.7H200.1a0,0,0,0,1,0,0v23.8a9.5,9.5,0,0,1-9.5,9.5H81a9.5,9.5,0,0,1-9.5-9.5V146.7A0,0,0,0,1,71.5,146.7Z"/>
      <rect class="cls-2" x="71.2" y="43" width="128.8" height="33.75"/>
      <rect class="cls-3" x="71.3" y="76.6" width="128.6" height="33.75"/>
      <g>
        <circle class="cls-4" cx="181.9" cy="93.3" r="8.3"/>
        <circle class="cls-5" cx="181.9" cy="89.9" r="1.6"/>
        <path class="cls-5" d="M180.5,93.8h2.8a0,0,0,0,1,0,0v3a1.4,1.4,0,0,1-1.4,1.4h0a1.4,1.4,0,0,1-1.4-1.4v-3A0,0,0,0,1,180.5,93.8Z"/>
      </g>
      <path class="cls-6" d="M71.3,143.3H199.9a0,0,0,0,1,0,0v23.8a9.5,9.5,0,0,1-9.5,9.5H80.8a9.5,9.5,0,0,1-9.5-9.5V143.3A0,0,0,0,1,71.3,143.3Z"/>
      <rect class="cls-7" x="71.3" y="110.3" width="128.6" height="33.35"/>
      <path class="cls-8" d="M65.3,110.3h98.9a0,0,0,0,1,0,0v33.3a0,0,0,0,1,0,0H65.3A16.7,16.7,0,0,1,48.7,127v0A16.7,16.7,0,0,1,65.3,110.3Z"/>
      <path class="cls-9" d="M200,27.8c0-4.3-4.2-7.8-9.5-7.8H80.7c-5.3,0-9.5,3.5-9.5,7.8V39.2H200Z"/>
      <g>
        <circle class="cls-10" cx="67.4" cy="127" r="9.4" transform="translate(-66.3 74.1) rotate(-40.4)"/>
        <circle class="cls-5" cx="67.4" cy="125.3" r="3.7"/>
        <path class="cls-9" d="M73.4,134.3a9.4,9.4,0,0,1-5.9,2.1,8.9,8.9,0,0,1-5.9-2.1,11.3,11.3,0,0,1,3.1-6.5,3.7,3.7,0,0,0,2.8,1.2,3.4,3.4,0,0,0,2.7-1.3A11.7,11.7,0,0,1,73.4,134.3Z"/>
      </g>
      <rect class="cls-2" x="25.6" y="85.5" width="28.4" height="17.27" rx="4.8"/>
      <rect class="cls-2" x="38.7" y="72" width="22.4" height="7.34" rx="3.7"/>
      <rect class="cls-2" x="218.6" y="104.6" width="22.4" height="7.34" rx="3.7"/>
      <g>
        <circle class="cls-10" cx="92.1" cy="161.5" r="9.4" transform="translate(-82.8 98.3) rotate(-40.4)"/>
        <circle class="cls-5" cx="92.1" cy="159.8" r="3.7"/>
        <path class="cls-9" d="M98,168.8a9.3,9.3,0,0,1-11.8,0,11.7,11.7,0,0,1,3.1-6.6,3.7,3.7,0,0,0,5.6,0A12.3,12.3,0,0,1,98,168.8Z"/>
      </g>
      <g>
        <circle class="cls-10" cx="92.1" cy="93.3" r="9.4" transform="translate(-38.5 82) rotate(-40.4)"/>
        <circle class="cls-5" cx="92.1" cy="91.6" r="3.7"/>
        <path class="cls-9" d="M98,100.5a9,9,0,0,1-5.9,2.2,9.4,9.4,0,0,1-5.9-2.1A11.7,11.7,0,0,1,89.3,94a3.7,3.7,0,0,0,5.6,0A12,12,0,0,1,98,100.5Z"/>
      </g>
      <path class="cls-11" d="M143.8,57.1H114.4a2.8,2.8,0,0,0,0,5.6h29.4a2.8,2.8,0,0,0,0-5.6Z"/>
      <path class="cls-12" d="M105.4,30.3H90a1.5,1.5,0,0,0-1.5,1.5A1.5,1.5,0,0,0,90,33.2h15.4a1.5,1.5,0,0,0,1.5-1.4A1.5,1.5,0,0,0,105.4,30.3Z"/>
      <path class="cls-12" d="M116.1,30.3H113a1.5,1.5,0,0,0-1.4,1.5,1.4,1.4,0,0,0,1.4,1.4h3.1a1.5,1.5,0,0,0,1.5-1.4A1.5,1.5,0,0,0,116.1,30.3Z"/>
      <g>
        <path class="cls-5" d="M141.8,151.9H112.4a2.8,2.8,0,0,0,0,5.6h29.4a2.8,2.8,0,0,0,0-5.6Z"/>
        <path class="cls-13" d="M124.5,162.4H112.6a2.8,2.8,0,1,0,0,5.6h11.9a2.8,2.8,0,1,0,0-5.6Z"/>
      </g>
      <g>
        <line class="cls-14" x1="176" y1="121.2" x2="187.7" y2="133"/>
        <line class="cls-14" x1="176" y1="133" x2="187.7" y2="121.2"/>
      </g>
      <g>
        <path class="cls-5" d="M141.8,85.2H112.4a2.8,2.8,0,0,0,0,5.6h29.4a2.8,2.8,0,0,0,0-5.6Z"/>
        <path class="cls-13" d="M124.5,95.7H112.6a2.8,2.8,0,0,0,0,5.6h11.9a2.8,2.8,0,0,0,0-5.6Z"/>
      </g>
      <rect class="cls-15" x="152.5" y="56.5" width="84.6" height="36.53" rx="4.8"/>
      <circle class="cls-11" cx="92.1" cy="59.9" r="10.1"/>
      <line class="cls-16" x1="86.5" y1="59.9" x2="97.6" y2="59.9"/>
      <line class="cls-16" x1="92.1" y1="65.5" x2="92.1" y2="54.3"/>
      <rect class="cls-9" x="152.3" y="53.9" width="84.6" height="36.53" rx="4.8"/>
      <g>
        <circle class="cls-5" cx="170.3" cy="72.2" r="9.4" transform="translate(-6.2 127.7) rotate(-40.4)"/>
        <circle class="cls-17" cx="170.3" cy="70.5" r="3.7"/>
        <path class="cls-18" d="M176.2,79.5a9.2,9.2,0,0,1-5.9,2.1,9.4,9.4,0,0,1-5.9-2,11.3,11.3,0,0,1,3.1-6.6,4,4,0,0,0,2.8,1.2,3.7,3.7,0,0,0,2.8-1.3A11.7,11.7,0,0,1,176.2,79.5Z"/>
      </g>
      <g>
        <path class="cls-17" d="M219.2,64.2H189.8a2.8,2.8,0,1,0,0,5.5h29.4a2.8,2.8,0,1,0,0-5.5Z"/>
        <path class="cls-17" d="M201.9,74.7H190a2.8,2.8,0,1,0,0,5.5h11.9a2.8,2.8,0,1,0,0-5.5Z"/>
      </g>
      <g>
        <path class="cls-5" d="M115.6,119H86.2a2.8,2.8,0,1,0,0,5.5h29.4a2.8,2.8,0,0,0,0-5.5Z"/>
        <path class="cls-13" d="M98.3,129.5H86.4a2.8,2.8,0,1,0,0,5.5H98.3a2.8,2.8,0,1,0,0-5.5Z"/>
      </g>
      <rect class="cls-19" x="71.3" y="143.5" width="128.6" height="3.97"/>
      <rect class="cls-19" x="71.3" y="106" width="128.6" height="4.37"/>
      <rect class="cls-20" x="71.1" y="39.1" width="129" height="3.97"/>
      <g>
        <circle class="cls-7" cx="146.5" cy="127" r="8.3"/>
        <circle class="cls-5" cx="146.5" cy="123.6" r="1.6"/>
        <path class="cls-5" d="M145.1,127.6h2.8a0,0,0,0,1,0,0v3a1.4,1.4,0,0,1-1.4,1.4h0a1.4,1.4,0,0,1-1.4-1.4v-3a0,0,0,0,1,0,0Z"/>
      </g>
      <g>
        <circle class="cls-21" cx="181.9" cy="160" r="8.3"/>
        <circle class="cls-5" cx="181.9" cy="156.6" r="1.6"/>
        <path class="cls-5" d="M180.5,160.5h2.8a0,0,0,0,1,0,0v3a1.4,1.4,0,0,1-1.4,1.4h0a1.4,1.4,0,0,1-1.4-1.4v-3a0,0,0,0,1,0,0Z"/>
      </g>
      <circle class="cls-2" cx="213.4" cy="123.8" r="3.4"/>
    </g>
  </g>
</svg>
