<svg xmlns="http://www.w3.org/2000/svg" viewBox="0 0 800 600">
  <defs>
    <style>
      .cls-1, .cls-11, .cls-16, .cls-24 {
        fill: #badcf7;
      }

      .cls-2 {
        fill: #78bef9;
      }

      .cls-3 {
        fill: #edf4f9;
      }

      .cls-4 {
        fill: #1c2f60;
      }

      .cls-5 {
        fill: #65abef;
      }

      .cls-10, .cls-13, .cls-15, .cls-18, .cls-19, .cls-21, .cls-6 {
        fill: none;
        stroke-linecap: round;
        stroke-miterlimit: 10;
      }

      .cls-6 {
        stroke: #1389ea;
      }

      .cls-10, .cls-13, .cls-18, .cls-19, .cls-21, .cls-6 {
        stroke-width: 3px;
      }

      .cls-14, .cls-7 {
        fill: #fff;
      }

      .cls-8 {
        fill: #06c;
      }

      .cls-9 {
        fill: #0e1935;
      }

      .cls-10 {
        stroke: #badcf7;
      }

      .cls-11, .cls-14 {
        opacity: 0.5;
      }

      .cls-12 {
        fill: #1389ea;
      }

      .cls-13 {
        stroke: #14014d;
      }

      .cls-15 {
        stroke: #fff;
        stroke-width: 2px;
      }

      .cls-16 {
        opacity: 0.52;
      }

      .cls-17 {
        fill: #d7e8f4;
      }

      .cls-18 {
        stroke: #1c2f60;
      }

      .cls-19 {
        stroke: #0e1935;
      }

      .cls-20 {
        fill: #e4f0f9;
      }

      .cls-21 {
        stroke: #78bef9;
      }

      .cls-22 {
        fill: #0055b2;
      }

      .cls-23 {
        fill: #bedbed;
      }

      .cls-24 {
        opacity: 0.2;
      }
    </style>
  </defs>
  <g data-name="Layer 1">
    <g>
      <rect class="cls-1" x="400.4" y="396.3" width="247.5" height="98.73" rx="16.8"/>
      <path class="cls-2" d="M179.4,211.6V444.8a15.2,15.2,0,0,0,14.9,15.4H552.6a15.2,15.2,0,0,0,14.9-15.4V211.6Z"/>
      <path class="cls-3" d="M179.1,213.5V440A15,15,0,0,0,194,455H553.6a15,15,0,0,0,15-15V213.5Z"/>
      <rect class="cls-4" x="292.7" y="289" width="74" height="14.95" rx="7.5"/>
      <rect class="cls-2" x="202.2" y="345" width="74" height="14.95" rx="7.5"/>
      <rect class="cls-4" x="202.2" y="368.2" width="74" height="14.95" rx="7.5"/>
      <rect class="cls-5" x="84.5" y="264.7" width="64.3" height="64.32" rx="5.4"/>
      <path class="cls-2" d="M140.3,264.7v50.4a5.4,5.4,0,0,1-5.4,5.4H84.5V270a5.3,5.3,0,0,1,5.3-5.3Z"/>
      <path class="cls-6" d="M111.2,324.5H85.4a5.4,5.4,0,0,1-5.4-5.4V265.5a5.4,5.4,0,0,1,5.4-5.3H139a5.3,5.3,0,0,1,5.3,5.3v53.6a5.4,5.4,0,0,1-5.3,5.4h-5.1"/>
      <line class="cls-6" x1="125.5" y1="324.5" x2="120.2" y2="324.5"/>
      <path class="cls-7" d="M130,294.6H118.9V283.4a2.2,2.2,0,0,0-2.3-2.2h0a2.2,2.2,0,0,0-2.2,2.2v11.2H103.2a2.2,2.2,0,0,0-2.2,2.2h0a2.2,2.2,0,0,0,2.2,2.2h11.2v11.2a2.2,2.2,0,0,0,2.2,2.2h0a2.2,2.2,0,0,0,2.3-2.2V299H130a2.2,2.2,0,0,0,2.3-2.2h0A2.2,2.2,0,0,0,130,294.6Z"/>
      <path class="cls-8" d="M568.6,170.1a15,15,0,0,0-15-15H194a15,15,0,0,0-14.9,15v43.4H568.6Z"/>
      <rect class="cls-4" x="179.4" y="213.1" width="278.9" height="7.48"/>
      <rect class="cls-9" x="258.3" y="135" width="30.3" height="45.61" rx="8.5"/>
      <rect class="cls-4" x="258.3" y="129" width="30.3" height="45.61" rx="8.5"/>
      <g>
        <line class="cls-10" x1="200.7" y1="276.8" x2="546.9" y2="276.8"/>
        <line class="cls-10" x1="201.1" y1="391.6" x2="547.3" y2="391.6"/>
        <line class="cls-10" x1="201.1" y1="334.2" x2="547.3" y2="334.2"/>
        <line class="cls-10" x1="374.2" y1="236.6" x2="374.2" y2="431.8"/>
        <line class="cls-10" x1="285.2" y1="237" x2="285.2" y2="432.1"/>
        <line class="cls-10" x1="463.9" y1="237" x2="463.9" y2="432.1"/>
      </g>
      <rect class="cls-8" x="292.7" y="286" width="74" height="14.95" rx="7.5"/>
      <rect class="cls-1" x="202.2" y="342.1" width="74" height="14.95" rx="7.5"/>
      <rect class="cls-11" x="382.4" y="397.8" width="74" height="14.95" rx="7.5"/>
      <rect class="cls-11" x="202.2" y="286" width="74" height="14.95" rx="7.5"/>
      <rect class="cls-11" x="292.7" y="235.5" width="74" height="14.95" rx="7.5"/>
      <rect class="cls-8" x="202.2" y="365.2" width="74" height="14.95" rx="7.5"/>
      <path class="cls-2" d="M127.3,412.1l-13.7-18a2.2,2.2,0,0,0-3.6,0l-13.8,18a2.2,2.2,0,0,0,1.8,3.6h5.2v14.2a4.5,4.5,0,0,0,4.5,4.5h8.2a4.5,4.5,0,0,0,4.5-4.5V415.7h5.2A2.2,2.2,0,0,0,127.3,412.1Z"/>
      <path class="cls-6" d="M123.6,408.4l-13.8-18a2.2,2.2,0,0,0-3.5,0l-13.8,18a2.3,2.3,0,0,0,1.8,3.6h5.1v14.2a4.5,4.5,0,0,0,4.5,4.5h8.2a4.5,4.5,0,0,0,4.5-4.5V412h5.2A2.3,2.3,0,0,0,123.6,408.4Z"/>
      <path class="cls-1" d="M138.1,445.5l7,8.3a1.5,1.5,0,0,0,2.3,0l7-8.3a1.1,1.1,0,0,0-.9-1.8h-2.8v-5.1a2.4,2.4,0,0,0-2.3-2.3h-4.2a2.3,2.3,0,0,0-2.3,2.3v5.1h-2.8A1.2,1.2,0,0,0,138.1,445.5Z"/>
      <rect class="cls-12" x="467.7" y="475.9" width="38.9" height="38.88" rx="6"/>
      <rect class="cls-13" x="464.3" y="472.5" width="38.9" height="38.88" rx="6"/>
      <path class="cls-7" d="M491.9,500.9l-5.6-5.6,5.6-5.5a1.6,1.6,0,0,0-1.1-2.7h0a2.1,2.1,0,0,0-1.2.4l-7.7,7.8,7.7,7.8a1.6,1.6,0,0,0,1.1.5h0A1.6,1.6,0,0,0,491.9,500.9Z"/>
      <rect class="cls-8" x="515.9" y="475.9" width="38.9" height="38.88" rx="6" transform="translate(1070.7 990.7) rotate(-180)"/>
      <rect class="cls-7" x="576.4" y="464.3" width="16.8" height="16.82" rx="2.6" transform="translate(1169.7 945.4) rotate(-180)"/>
      <rect class="cls-14" x="591.4" y="449.7" width="8.2" height="8.22" rx="1.3" transform="translate(1191 907.7) rotate(-180)"/>
      <path class="cls-7" d="M530.6,500.9l5.5-5.6-5.6-5.5a1.6,1.6,0,0,1,1.2-2.7h0a2.1,2.1,0,0,1,1.1.4l7.8,7.8-7.8,7.8a1.6,1.6,0,0,1-1.1.5h0A1.6,1.6,0,0,1,530.6,500.9Z"/>
      <g>
        <line class="cls-15" x1="237" y1="344.2" x2="243" y2="344.2"/>
        <line class="cls-15" x1="230.9" y1="344.2" x2="232.8" y2="344.2"/>
        <path class="cls-15" d="M204.9,349.5a5.3,5.3,0,0,1,5.3-5.3H227"/>
      </g>
      <g>
        <line class="cls-15" x1="229.5" y1="367.4" x2="248.2" y2="367.4"/>
        <line class="cls-15" x1="223.4" y1="367.4" x2="225.3" y2="367.4"/>
        <path class="cls-15" d="M204.9,372.7a5.3,5.3,0,0,1,5.3-5.3h9.3"/>
      </g>
      <g>
        <rect class="cls-2" x="202.2" y="403.4" width="164.5" height="14.95" rx="7.5"/>
        <rect class="cls-1" x="202.2" y="400.4" width="164.5" height="14.95" rx="7.5"/>
        <g>
          <line class="cls-15" x1="243" y1="402.5" x2="243" y2="402.5"/>
          <line class="cls-15" x1="224.1" y1="402.5" x2="238.8" y2="402.5"/>
          <path class="cls-15" d="M204.9,407.9a5.4,5.4,0,0,1,5.3-5.4h10"/>
        </g>
      </g>
      <g>
        <line class="cls-15" x1="317.4" y1="288" x2="333.8" y2="288"/>
        <line class="cls-15" x1="310.5" y1="288" x2="313.2" y2="288"/>
        <line class="cls-15" x1="338.2" y1="288" x2="340.8" y2="288"/>
        <path class="cls-15" d="M295.7,293.4A5.4,5.4,0,0,1,301,288h5.6"/>
      </g>
      <circle class="cls-1" cx="531.2" cy="400.4" r="3.8"/>
      <circle class="cls-1" cx="544" cy="400.4" r="3.8"/>
      <rect class="cls-16" x="378.1" y="338.7" width="82.6" height="48.22"/>
      <path class="cls-6" d="M460.6,368.2v15.4a3.3,3.3,0,0,1-3.3,3.3H433.8"/>
      <path class="cls-6" d="M411.5,386.9H381.6a3.3,3.3,0,0,1-3.3-3.3v-42a3.3,3.3,0,0,1,3.3-3.3h75.7a3.3,3.3,0,0,1,3.3,3.3v18.7"/>
      <line class="cls-6" x1="426.2" y1="386.9" x2="419.4" y2="386.9"/>
      <rect class="cls-9" x="382.4" y="345" width="74" height="14.95" rx="7.5"/>
      <rect class="cls-4" x="382.4" y="342.1" width="74" height="14.95" rx="7.5"/>
      <g>
        <line class="cls-15" x1="417.2" y1="344.2" x2="423.2" y2="344.2"/>
        <line class="cls-15" x1="412.5" y1="344.2" x2="413" y2="344.2"/>
        <path class="cls-15" d="M385,349.5a5.4,5.4,0,0,1,5.4-5.3h18.2"/>
      </g>
      <line class="cls-10" x1="296.8" y1="161.5" x2="370.8" y2="161.5"/>
      <line class="cls-10" x1="382.4" y1="161.9" x2="389.9" y2="161.9"/>
      <g>
        <rect class="cls-1" x="433.5" y="95.2" width="231.7" height="212.89" rx="25.1"/>
        <rect class="cls-7" x="435.2" y="96.2" width="224.3" height="206.06" rx="21.6"/>
        <rect class="cls-17" x="498.1" y="201.1" width="106.7" height="8.11" rx="4.1"/>
        <g>
          <rect class="cls-17" x="518.2" y="214.6" width="46.4" height="8.11" rx="4.1"/>
          <rect class="cls-17" x="570.2" y="214.6" width="14.7" height="8.11" rx="4.1"/>
        </g>
        <rect class="cls-12" x="450.8" y="243" width="93.9" height="41.21" rx="8.1"/>
        <rect class="cls-9" x="552.9" y="243" width="93.9" height="41.21" rx="8.1"/>
        <rect class="cls-2" x="450.8" y="238.9" width="93.9" height="41.21" rx="8.1"/>
        <path class="cls-7" d="M483.1,250.5h0a2.5,2.5,0,0,0-3.7,0l-11.7,11.7-3.9-3.8a2.5,2.5,0,0,0-3.6,0h0a2.5,2.5,0,0,0,0,3.6l7.4,7.4h.2l15.3-15.3A2.5,2.5,0,0,0,483.1,250.5Z"/>
        <rect class="cls-14" x="493.4" y="251.1" width="37.8" height="4.73" rx="2.4"/>
        <rect class="cls-14" x="493.4" y="259.9" width="15.5" height="4.73" rx="2.4"/>
        <rect class="cls-4" x="552.9" y="238.9" width="93.9" height="41.21" rx="8.1"/>
        <rect class="cls-14" x="595.4" y="251.1" width="37.8" height="4.73" rx="2.4"/>
        <rect class="cls-14" x="595.4" y="259.9" width="15.5" height="4.73" rx="2.4"/>
        <path class="cls-7" d="M582.5,264.2l-4.7-4.7,4.7-4.6a2.6,2.6,0,0,0-3.7-3.7l-4.7,4.6-4.6-4.6a2.7,2.7,0,0,0-3.7,0,2.5,2.5,0,0,0,0,3.7l4.6,4.7-4.6,4.6a2.6,2.6,0,0,0,3.7,3.7l4.6-4.6,4.7,4.6a2.7,2.7,0,0,0,3.7,0h0A2.7,2.7,0,0,0,582.5,264.2Z"/>
        <path class="cls-6" d="M433.3,145.9V116a21.6,21.6,0,0,1,21.6-21.6H501"/>
        <path class="cls-6" d="M591,300.4H454.9a21.6,21.6,0,0,1-21.6-21.6V255.4"/>
        <line class="cls-6" x1="602.6" y1="300.4" x2="597.7" y2="300.4"/>
        <path class="cls-6" d="M657.6,194.2v84.6A21.7,21.7,0,0,1,636,300.4H609.8"/>
        <line class="cls-6" x1="657.6" y1="181.3" x2="657.6" y2="184.1"/>
        <path class="cls-8" d="M637,123.4,625.1,116l-11.8,7.4V93a4.1,4.1,0,0,1,4.1-4.1h15.5A4.1,4.1,0,0,1,637,93Z"/>
        <path class="cls-18" d="M633.6,119.7l-11.8-7.4-11.9,7.4V89.3a4.1,4.1,0,0,1,4.1-4.1h15.5a4.1,4.1,0,0,1,4.1,4.1Z"/>
        <g>
          <g>
            <circle class="cls-8" cx="550.6" cy="150.9" r="35.7" transform="translate(-13.8 64.7) rotate(-6.6)"/>
            <circle class="cls-7" cx="551" cy="144.5" r="14" transform="translate(-13 64.7) rotate(-6.6)"/>
            <path class="cls-2" d="M571.4,179.9a35.6,35.6,0,0,1-44.7-2.6,44.5,44.5,0,0,1,13.2-24.2,13.9,13.9,0,0,0,10.3,5.4,14,14,0,0,0,10.8-4.2A44.1,44.1,0,0,1,571.4,179.9Z"/>
          </g>
          <path class="cls-19" d="M575.3,167.3a35.3,35.3,0,1,0-20.4,15"/>
        </g>
      </g>
      <g>
        <rect class="cls-20" x="613.8" y="353.6" width="106.2" height="81.12" rx="4.4"/>
        <rect class="cls-21" x="608.2" y="348" width="106.2" height="81.12" rx="4.4"/>
        <rect class="cls-1" x="653.8" y="367.5" width="41.7" height="5.08" rx="2.5"/>
        <rect class="cls-1" x="653.8" y="378.8" width="20.9" height="5.08" rx="2.5"/>
        <g>
          <path class="cls-9" d="M629.2,381.3a10.1,10.1,0,0,1-4.3-1,9.5,9.5,0,0,0,8.4,5.1,9.3,9.3,0,0,0,9.3-9.3,9.5,9.5,0,0,0-5.1-8.4,10.1,10.1,0,0,1,1,4.3A9.3,9.3,0,0,1,629.2,381.3Z"/>
          <path class="cls-4" d="M623.9,376.1a10,10,0,0,0,1,4.2,10.1,10.1,0,0,0,4.3,1,9.3,9.3,0,0,0,9.3-9.3,10.1,10.1,0,0,0-1-4.3,10,10,0,0,0-4.2-1A9.4,9.4,0,0,0,623.9,376.1Z"/>
        </g>
        <g>
          <rect class="cls-1" x="653.8" y="404.1" width="41.7" height="5.08" rx="2.5"/>
          <rect class="cls-1" x="653.8" y="415.4" width="20.9" height="5.08" rx="2.5"/>
          <path class="cls-22" d="M637.5,404.4a9.6,9.6,0,0,1,1,4.2,9.3,9.3,0,0,1-9.3,9.3,8.8,8.8,0,0,1-4.3-1,9.3,9.3,0,1,0,12.6-12.5Z"/>
          <path class="cls-8" d="M638.5,408.6a9.6,9.6,0,0,0-1-4.2,8.7,8.7,0,0,0-4.2-1,9.3,9.3,0,0,0-9.4,9.3,9.6,9.6,0,0,0,1,4.2,8.8,8.8,0,0,0,4.3,1A9.3,9.3,0,0,0,638.5,408.6Z"/>
        </g>
      </g>
      <rect class="cls-13" x="512.5" y="472.9" width="38.9" height="38.88" rx="6"/>
      <g>
        <path class="cls-20" d="M103.6,215.3h0a21.9,21.9,0,0,0,21.6,18H232.9a22,22,0,0,0,15.6-6.5,22.4,22.4,0,0,0,6.5-15.5,26,26,0,0,1,.3,4,22,22,0,0,1-22,22.1H125.6A22,22,0,0,1,103.6,215.3Z"/>
        <g>
          <path class="cls-23" d="M255.3,218.4a22.3,22.3,0,0,1-6.4,15.5,22,22,0,0,1-15.6,6.5H125.6a22.1,22.1,0,0,1-21.7-18,22,22,0,0,1,22.1-22H233.6A22,22,0,0,1,255.3,218.4Z"/>
          <path class="cls-7" d="M255.1,218.4a15.1,15.1,0,0,0,.2-3,11.7,11.7,0,0,0-.5-2,14.9,14.9,0,0,0,.2-2.1,22,22,0,0,0-21.7-18H125.6a21.9,21.9,0,0,0-22,22,17.7,17.7,0,0,0,.4,2c0,.7-.1,1.4-.1,2.1a22.1,22.1,0,0,0,21.7,18H233.3a22,22,0,0,0,15.6-6.5,22.2,22.2,0,0,0,6.2-12.5"/>
        </g>
        <circle class="cls-2" cx="126" cy="215.3" r="3.7"/>
        <circle class="cls-1" cx="143.9" cy="215.3" r="3.7"/>
        <circle class="cls-11" cx="161.9" cy="215.3" r="3.7"/>
        <circle class="cls-24" cx="179.8" cy="215.3" r="3.7"/>
        <circle class="cls-2" cx="230.3" cy="215.3" r="15"/>
        <g>
          <path class="cls-7" d="M228.4,207.9a5.4,5.4,0,1,0,2.9,9.9,3.7,3.7,0,0,0,1.3-1.2,5,5,0,0,0,1.2-3.4A5.4,5.4,0,0,0,228.4,207.9Zm1.7,8.8a4.7,4.7,0,0,1-1.7.4,3.9,3.9,0,0,1,0-7.7,3.9,3.9,0,0,1,3.9,3.8,3.6,3.6,0,0,1-.8,2.3A4.1,4.1,0,0,1,230.1,216.7Z"/>
          <path class="cls-7" d="M237.3,222.5a.9.9,0,0,1-1.3,0l-4.7-4.7a3.7,3.7,0,0,0,1.3-1.2l4.7,4.7A.9.9,0,0,1,237.3,222.5Z"/>
        </g>
        <path class="cls-13" d="M240,221.7a15.1,15.1,0,0,0,2.2-7.9,15,15,0,1,0-14.9,15,17.4,17.4,0,0,0,3.9-.5"/>
      </g>
      <path class="cls-6" d="M124.1,191.8a21.9,21.9,0,0,0-22,22c.1.6.3,3.4.3,4.1a22.1,22.1,0,0,0,21.7,18H231.8a22,22,0,0,0,15.6-6.5,21.6,21.6,0,0,0,6.2-12.5"/>
      <line class="cls-6" x1="136" y1="191.8" x2="131.5" y2="191.8"/>
      <path class="cls-6" d="M253.6,216.9a15.1,15.1,0,0,0,.2-3c-.1-.7-.3-3.4-.3-4.1a22,22,0,0,0-21.7-18H142.7"/>
    </g>
  </g>
</svg>
