<svg xmlns="http://www.w3.org/2000/svg" viewBox="0 0 800 600">
  <defs>
    <style>
      .cls-1 {
        fill: #e4f0f9;
      }

      .cls-2 {
        fill: #badcf7;
      }

      .cls-3 {
        fill: #fff;
      }

      .cls-4 {
        fill: #d7e8f4;
      }

      .cls-12, .cls-13, .cls-5 {
        fill: none;
        stroke-linecap: round;
        stroke-miterlimit: 10;
        stroke-width: 3px;
      }

      .cls-5 {
        stroke: #1389ea;
      }

      .cls-6 {
        fill: #06c;
      }

      .cls-7 {
        fill: #1c2f60;
      }

      .cls-8 {
        fill: #78bef9;
      }

      .cls-9 {
        fill: #1389ea;
      }

      .cls-10, .cls-11 {
        fill: #1b8fef;
      }

      .cls-11 {
        opacity: 0.5;
      }

      .cls-12 {
        stroke: #0e1935;
      }

      .cls-13 {
        stroke: #78bef9;
      }
    </style>
  </defs>
  <g data-name="Layer 1">
    <g>
      <path class="cls-1" d="M139.6,279.3H96.9a2.7,2.7,0,0,0,0,5.4h42.7a2.7,2.7,0,1,0,0-5.4Z"/>
      <path class="cls-1" d="M110.2,290H96.9a2.7,2.7,0,0,0,0,5.4h13.3a2.7,2.7,0,1,0,0-5.4Z"/>
    </g>
    <circle class="cls-1" cx="662.9" cy="272.3" r="9.3"/>
  </g>
  <g data-name="Layer 5">
    <circle class="cls-1" cx="630.8" cy="344.6" r="32.1"/>
    <ellipse class="cls-1" cx="390.5" cy="479.7" rx="215.3" ry="22.3"/>
    <path class="cls-1" d="M580.7,192.5A20.7,20.7,0,0,0,560,171.8H220.9a20.7,20.7,0,0,0-20.7,20.7V389.8H580.7Z"/>
    <path class="cls-2" d="M200.2,389.8v30.4A20.8,20.8,0,0,0,220.9,441H560a20.8,20.8,0,0,0,20.7-20.8V389.8Z"/>
    <rect class="cls-3" x="404" y="209.1" width="156" height="136.52" rx="7.8"/>
    <g>
      <circle class="cls-4" cx="482.5" cy="264.7" r="30.3" transform="translate(18.4 560.5) rotate(-61.3)"/>
      <path class="cls-4" d="M536.1,345.6H427.7c4-25.2,21.1-50.1,31.8-61.2h.1a26.3,26.3,0,0,0,4.5,4.3l.2.2,1,.7.3.2a4.1,4.1,0,0,0,1.1.7l1.2.8.6.3.8.4.6.2a1.1,1.1,0,0,0,.7.3l.7.3,1.3.5,1.5.5,2.9.7h.7l1.2.2h3.4a34.4,34.4,0,0,0,4.6-.3h1l2.2-.5,1.6-.4,1.2-.4,1.4-.6.7-.3,1.3-.6.6-.3,2.5-1.5,1.2-.9h0a26.7,26.7,0,0,0,4.6-4.3h0C515.8,295.9,532.4,320.6,536.1,345.6Z"/>
    </g>
    <path class="cls-5" d="M452.1,339.4H405.5a7.8,7.8,0,0,1-7.8-7.8V210.7a7.8,7.8,0,0,1,7.8-7.8H546a7.8,7.8,0,0,1,7.8,7.8v68.1"/>
    <g>
      <path class="cls-2" d="M614.7,311.3h-5.8V299.7a5.8,5.8,0,0,0-5.8-5.8h-5.7a5.8,5.8,0,0,0-5.8,5.8v11.6H533.7V299.7a5.8,5.8,0,0,0-5.8-5.8h-5.8a5.8,5.8,0,0,0-5.7,5.8v11.6h-5.8a17.3,17.3,0,0,0-17.4,17.3v72.3a17.4,17.4,0,0,0,17.4,17.3H614.7a17.4,17.4,0,0,0,17.4-17.3V328.6A17.3,17.3,0,0,0,614.7,311.3Z"/>
      <g>
        <path class="cls-3" d="M626.3,330H499a5.8,5.8,0,0,0-5.8,5.8v60.9a17.4,17.4,0,0,0,17.4,17.4H614.7a17.4,17.4,0,0,0,17.4-17.4V335.8A5.8,5.8,0,0,0,626.3,330Z"/>
        <path class="cls-6" d="M614.7,307.1H510.6a17.4,17.4,0,0,0-17.4,17.4v11.3H632.1V324.5A17.4,17.4,0,0,0,614.7,307.1Z"/>
        <g>
          <path class="cls-7" d="M527.9,293.9h-5.8a5.8,5.8,0,0,0-5.7,5.8v19a5.8,5.8,0,0,0,5.7,5.8h5.8a5.8,5.8,0,0,0,5.8-5.8v-19A5.8,5.8,0,0,0,527.9,293.9Z"/>
          <path class="cls-7" d="M603.1,293.9h-5.7a5.8,5.8,0,0,0-5.8,5.8v19a5.8,5.8,0,0,0,5.8,5.8h5.7a5.8,5.8,0,0,0,5.8-5.8v-19A5.8,5.8,0,0,0,603.1,293.9Z"/>
        </g>
      </g>
      <rect class="cls-8" x="550.8" y="348.1" width="27.8" height="18.07" rx="5.6"/>
      <rect class="cls-6" x="588.4" y="377.3" width="27.8" height="18.07" rx="5.6"/>
      <rect class="cls-6" x="509.2" y="348.1" width="27.8" height="18.07" rx="5.6"/>
    </g>
    <path class="cls-2" d="M335,469.6H445.9a11.4,11.4,0,0,1,11.4,11.4v0a0,0,0,0,1,0,0H323.6a0,0,0,0,1,0,0v0A11.4,11.4,0,0,1,335,469.6Z"/>
    <g>
      <rect class="cls-6" x="173.2" y="257.4" width="149.3" height="33.18" rx="8.3"/>
      <rect class="cls-9" x="173.2" y="253.3" width="149.3" height="33.18" rx="8.3"/>
      <circle class="cls-2" cx="196.6" cy="269.9" r="7.8"/>
      <g>
        <path class="cls-8" d="M251,267.8H219.6a2.1,2.1,0,0,0-2.1,2.1,2,2,0,0,0,2.1,2H251a2,2,0,0,0,2.1-2A2.1,2.1,0,0,0,251,267.8Z"/>
        <path class="cls-8" d="M299.7,267.8h-20a2.1,2.1,0,1,0,0,4.1h20a2,2,0,0,0,2.1-2A2.1,2.1,0,0,0,299.7,267.8Z"/>
        <path class="cls-8" d="M269.7,267.8H261a2,2,0,0,0-2,2.1,2,2,0,0,0,2,2h8.7a2,2,0,0,0,2-2A2,2,0,0,0,269.7,267.8Z"/>
      </g>
    </g>
    <g>
      <path class="cls-10" d="M625.5,146.8h-104a12,12,0,0,0-12,12v48.5a12,12,0,0,0,12,12H523v8.8a3.1,3.1,0,0,0,5,2.3l13.7-11.1h83.8a12.1,12.1,0,0,0,12.1-12V158.8A12.1,12.1,0,0,0,625.5,146.8Z"/>
      <path class="cls-8" d="M625.2,142.6h-104a12.1,12.1,0,0,0-12.1,12.1v48.5a12.1,12.1,0,0,0,12.1,12h1.5v8.7a3,3,0,0,0,4.9,2.4l13.7-11.1h83.9a12,12,0,0,0,12-12V154.7A12.1,12.1,0,0,0,625.2,142.6Z"/>
      <circle class="cls-3" cx="529.9" cy="167.8" r="7.9"/>
      <rect class="cls-10" x="549.1" y="161.4" width="72.2" height="4.51" rx="2.3"/>
      <rect class="cls-10" x="549.1" y="171.2" width="55.6" height="4.51" rx="2.3"/>
      <rect class="cls-11" x="549.1" y="188.8" width="10" height="4.51" rx="2.3"/>
      <rect class="cls-11" x="564.7" y="188.8" width="10" height="4.51" rx="2.3"/>
      <rect class="cls-11" x="580.2" y="188.8" width="10" height="4.51" rx="2.3"/>
      <rect class="cls-11" x="594.7" y="188.8" width="10" height="4.51" rx="2.3"/>
    </g>
    <rect class="cls-2" x="343.3" y="441.1" width="94.4" height="31.11"/>
    <rect class="cls-8" x="343.3" y="441.1" width="94.4" height="7.73"/>
    <g>
      <circle class="cls-3" cx="287.3" cy="201.1" r="11.2" transform="translate(-49.5 298.6) rotate(-51.1)"/>
      <path class="cls-3" d="M369.3,198.9H307.9a2.4,2.4,0,0,1-2.5-2.4h0a2.5,2.5,0,0,1,2.5-2.4h61.3a2.5,2.5,0,0,1,2.5,2.5h0A2.4,2.4,0,0,1,369.3,198.9Z"/>
      <path class="cls-3" d="M355.3,208H307.9a2.5,2.5,0,0,1-2.5-2.4h0a2.5,2.5,0,0,1,2.5-2.5h47.4a2.5,2.5,0,0,1,2.4,2.5h0A2.4,2.4,0,0,1,355.3,208Z"/>
      <path class="cls-4" d="M291.7,197.5h0a1.4,1.4,0,0,0-1.9,0l-3.8,3.9-1.3-1.3a1.3,1.3,0,0,0-1.8,0h0a1.4,1.4,0,0,0,0,1.9l3,3h.1l5.7-5.7A1.3,1.3,0,0,0,291.7,197.5Z"/>
      <circle class="cls-3" cx="287.3" cy="229.7" r="11.2" transform="translate(-71.8 309.3) rotate(-51.1)"/>
      <path class="cls-3" d="M369.3,227.5H307.9a2.5,2.5,0,0,1-2.4-2.5h0a2.4,2.4,0,0,1,2.4-2.4h61.4a2.4,2.4,0,0,1,2.4,2.4h0A2.4,2.4,0,0,1,369.3,227.5Z"/>
      <path class="cls-3" d="M355.3,236.6H307.9a2.4,2.4,0,0,1-2.4-2.4h0a2.4,2.4,0,0,1,2.4-2.4h47.4a2.5,2.5,0,0,1,2.5,2.5h0A2.5,2.5,0,0,1,355.3,236.6Z"/>
      <path class="cls-4" d="M291.7,226.1h0a1.3,1.3,0,0,0-1.8,0L286,230l-1.2-1.2a1.2,1.2,0,0,0-1.9,0h0a1.3,1.3,0,0,0,0,1.8l3.1,3h.1l5.6-5.6A1.4,1.4,0,0,0,291.7,226.1Z"/>
    </g>
    <g>
      <rect class="cls-6" x="228.2" y="302.7" width="57" height="57.03" rx="4.1"/>
      <rect class="cls-9" x="296.6" y="302.7" width="57" height="57.03" rx="4.1"/>
      <rect class="cls-8" x="365.1" y="302.7" width="57" height="57.03" rx="4.1"/>
      <g>
        <circle class="cls-2" cx="393.8" cy="327.7" r="12" transform="translate(-82.9 515.4) rotate(-61.3)"/>
        <path class="cls-2" d="M415,359.7H372.1c1.6-9.9,8.3-19.8,12.6-24.2h0l1.8,1.7h.1l.4.3h.1l.4.3.5.3h.3l.3.2h.8l.5.2.6.2,1.1.3h4.3l.9-.2.6-.2h.5l.6-.2h.2l.6-.3h.2l1-.6.5-.4h0a9.6,9.6,0,0,0,1.8-1.7h0C407,340.1,413.6,349.8,415,359.7Z"/>
      </g>
      <g>
        <circle class="cls-6" cx="325.4" cy="327.7" r="12" transform="translate(-118.4 455.4) rotate(-61.3)"/>
        <path class="cls-6" d="M346.6,359.7H303.7c1.5-9.9,8.3-19.8,12.6-24.2h0a9.8,9.8,0,0,0,1.8,1.7.1.1,0,0,0,.1.1l.4.3h.1l.4.3.5.3h.2l.3.2h.8l.6.2.5.2,1.2.3h4.3l.9-.2.6-.2h.5l.5-.2h.3l.5-.3h.3l1-.6.4-.4h.1a14.1,14.1,0,0,0,1.8-1.7h0C338.5,340.1,345.1,349.8,346.6,359.7Z"/>
      </g>
      <g>
        <circle class="cls-7" cx="257" cy="327.7" r="12" transform="translate(-153.9 395.4) rotate(-61.3)"/>
        <path class="cls-7" d="M278.2,359.7h-43c1.6-9.9,8.4-19.8,12.6-24.2h.1a13.7,13.7,0,0,0,1.7,1.7.1.1,0,0,1,.1.1l.4.3h.1l.5.3.5.3c0,.1.1.1.2.1l.3.2h.8l.5.2.6.2,1.2.3h4.3l.8-.2.7-.2h.4l.6-.2h.3l.5-.3h.3l.9-.6a1,1,0,0,0,.5-.4h0a7.3,7.3,0,0,0,1.8-1.7h0C270.1,340.1,276.7,349.8,278.2,359.7Z"/>
      </g>
      <rect class="cls-2" x="248.2" y="364.6" width="17.1" height="4.89" rx="2.4"/>
      <rect class="cls-2" x="316.6" y="364.6" width="17.1" height="4.89" rx="2.4"/>
      <rect class="cls-2" x="385" y="364.6" width="17.1" height="4.89" rx="2.4"/>
    </g>
    <g>
      <circle class="cls-9" cx="199.1" cy="184.9" r="52.7"/>
      <g>
        <path class="cls-2" d="M218,182.1a18.9,18.9,0,0,1-14.8,18.3,17.5,17.5,0,0,1-8.3,0,18.9,18.9,0,0,1-14.6-18.5"/>
        <path class="cls-2" d="M204.6,211.3H193.3l1.6-10.8a17.5,17.5,0,0,0,8.3,0Z"/>
        <path class="cls-2" d="M188.6,211.2h20.7a7.5,7.5,0,0,1,7.5,7.5v0a0,0,0,0,1,0,0H181.1a0,0,0,0,1,0,0v0A7.5,7.5,0,0,1,188.6,211.2Z" transform="translate(1.3 -1.2) rotate(0.3)"/>
        <g>
          <path class="cls-3" d="M212.5,164.2A13.3,13.3,0,0,0,199.3,151h0a13,13,0,0,0-13.2,13.1v15l26.4.2Z"/>
          <path class="cls-3" d="M186,179.1v2.8a13.1,13.1,0,0,0,13.1,13.3h0a13.2,13.2,0,0,0,13.3-13.1v-2.8Z"/>
        </g>
      </g>
      <circle class="cls-12" cx="195" cy="180.7" r="52.7"/>
    </g>
    <g>
      <path class="cls-7" d="M168.3,323.4h-80a16.1,16.1,0,0,0-16.1,16.1v45.3a16.1,16.1,0,0,0,16.1,16.1h80a16.1,16.1,0,0,0,16-16.1V339.5A16.1,16.1,0,0,0,168.3,323.4Z"/>
      <path class="cls-6" d="M168.3,318.5h-80a16.1,16.1,0,0,0-16.1,16.1v45.3A16.1,16.1,0,0,0,88.3,396h80a16.1,16.1,0,0,0,16-16.1V334.6A16.1,16.1,0,0,0,168.3,318.5Z"/>
      <g>
        <rect class="cls-3" x="90" y="364.3" width="13.3" height="14.66"/>
        <rect class="cls-2" x="111.2" y="348.2" width="13.3" height="30.72"/>
        <rect class="cls-8" x="132.3" y="336.3" width="13.3" height="42.59"/>
        <rect class="cls-9" x="153.5" y="358.7" width="13.3" height="20.25"/>
      </g>
      <line class="cls-13" x1="77.8" y1="356.8" x2="77.8" y2="361.8"/>
      <path class="cls-13" d="M142.3,322.7H90.8a13.1,13.1,0,0,0-13,13.1v13.3"/>
      <line class="cls-13" x1="157" y1="322.7" x2="151.8" y2="322.7"/>
    </g>
    <g>
      <path class="cls-7" d="M484.6,113.4H442.4a7.6,7.6,0,0,0-7.7,7.7v29.8a7.6,7.6,0,0,0,7.7,7.7h42.2a7.6,7.6,0,0,0,7.7-7.7V121.1A7.6,7.6,0,0,0,484.6,113.4Z"/>
      <path class="cls-6" d="M484.6,109.8H442.4a7.7,7.7,0,0,0-7.7,7.7v29.9a7.7,7.7,0,0,0,7.7,7.7h42.2a7.7,7.7,0,0,0,7.7-7.7V117.5A7.7,7.7,0,0,0,484.6,109.8Z"/>
      <g>
        <rect class="cls-4" x="447.8" y="122" width="24.9" height="20.93" rx="4"/>
        <polygon class="cls-8" points="479.2 139.7 472.7 136.7 472.7 128.2 479.2 125.2 479.2 139.7"/>
      </g>
    </g>
    <rect class="cls-4" x="333.4" y="248.3" width="44.6" height="22.81" rx="9.4"/>
    <rect class="cls-4" x="366.6" y="277.3" width="23.8" height="12.44" rx="5.1"/>
    <circle class="cls-8" cx="390.5" cy="415.2" r="10.4"/>
    <line class="cls-5" x1="553.8" y1="287.2" x2="553.8" y2="293.4"/>
    <line class="cls-5" x1="464.6" y1="339.4" x2="478.1" y2="339.4"/>
    <g>
      <circle class="cls-1" cx="369" cy="143.7" r="4.3"/>
      <circle class="cls-1" cx="386.2" cy="143.7" r="4.3"/>
      <circle class="cls-1" cx="403.4" cy="143.7" r="4.3" transform="translate(-21 86.8) rotate(-12)"/>
    </g>
  </g>
</svg>
