<svg xmlns="http://www.w3.org/2000/svg" viewBox="0 0 100 100">
  <defs>
    <style>
      .cls-1 {
        fill: none;
      }

      .cls-2 {
        fill: #5091de;
      }

      .cls-3 {
        fill: #3771bf;
      }

      .cls-4 {
        fill: #7ec4fc;
      }
    </style>
  </defs>
  <g data-name="Layer 3">
    <g>
      <g>
        <path class="cls-1" d="M44.6,41l-.6.3a4.3,4.3,0,0,0-2.9,5.2c1.2,5,7.6,11.1,12.3,12.3A4.6,4.6,0,0,0,58.7,56a1.4,1.4,0,0,1,.2-.7"/>
        <path class="cls-2" d="M45.6,33.9,39,27.3a4.6,4.6,0,0,0-6.4,0l-.8.8L44.6,41A4.4,4.4,0,0,0,45.6,33.9Z"/>
        <path class="cls-3" d="M58.9,55.3a1.4,1.4,0,0,0-.2.7,4.6,4.6,0,0,1-5.3,2.8c-4.7-1.2-11.1-7.3-12.3-12.3A4.3,4.3,0,0,1,44,41.3l.6-.3L31.8,28.1l-3.7,3.7c-4.5,4.7.5,17.3,11.6,28.4S63.4,76.6,68.1,71.9l3.7-3.7Z"/>
        <path class="cls-2" d="M72.6,67.4a4.6,4.6,0,0,0,0-6.4L66,54.3a4.5,4.5,0,0,0-7.1,1L71.8,68.2Z"/>
      </g>
      <path class="cls-4" d="M71.4,44.3H68A12.8,12.8,0,0,0,55.2,31.5V28.1A16.1,16.1,0,0,1,71.4,44.3Z"/>
      <path class="cls-4" d="M79.9,44.3H76.5A21.3,21.3,0,0,0,55.2,23V19.6A24.8,24.8,0,0,1,79.9,44.3Z"/>
      <path class="cls-4" d="M64.1,44.3H60.7a5.5,5.5,0,0,0-5.5-5.5V35.4A8.9,8.9,0,0,1,64.1,44.3Z"/>
    </g>
  </g>
</svg>
