<svg xmlns="http://www.w3.org/2000/svg" viewBox="0 0 800 600">
  <defs>
    <style>
      .cls-1 {
        fill: #e4f0f9;
      }

      .cls-2, .cls-4 {
        fill: #badcf7;
      }

      .cls-13, .cls-3, .cls-8 {
        fill: none;
        stroke-linecap: round;
        stroke-width: 3px;
      }

      .cls-3 {
        stroke: #78bef9;
        stroke-linejoin: round;
      }

      .cls-4 {
        opacity: 0.8;
      }

      .cls-5 {
        fill: #1c2f60;
      }

      .cls-6 {
        fill: #fff;
      }

      .cls-7 {
        fill: #78bef9;
      }

      .cls-8 {
        stroke: #1389ea;
      }

      .cls-13, .cls-8 {
        stroke-miterlimit: 10;
      }

      .cls-9 {
        fill: #d7e8f4;
      }

      .cls-10 {
        fill: #06c;
      }

      .cls-11 {
        fill: #1389ea;
      }

      .cls-12 {
        fill: #0e1935;
      }

      .cls-13 {
        stroke: #14014d;
      }

      .cls-14 {
        fill: #0054a8;
      }
    </style>
  </defs>
  <g data-name="Layer 1">
    <g>
      <ellipse class="cls-1" cx="410.9" cy="491.6" rx="253.7" ry="23.8"/>
      <path class="cls-2" d="M582.4,132.2V457.1c0,19.4-16.3,35.3-36.3,35.3H275.7c-19.9,0-36.2-15.9-36.2-35.3V132.2a31.8,31.8,0,0,1,1-8.2,28.4,28.4,0,0,1,1.9-5.6c0-.2.1-.3.1-.4H579.3c.1.1.1.2.2.4a34.5,34.5,0,0,1,2.9,13.8Z"/>
      <path class="cls-1" d="M582.4,125.6V450.5c0,19.5-16.3,35.4-36.3,35.4H275.7c-19.9,0-36.2-15.9-36.2-35.4V125.6a31,31,0,0,1,1-8.1,29.3,29.3,0,0,1,1.9-5.7v-.3H579.3l.2.3a38.1,38.1,0,0,1,1.9,5.7A35.9,35.9,0,0,1,582.4,125.6Z"/>
      <path class="cls-3" d="M553,480.3c14.1-4.9,24.3-18,24.3-33.4v-40"/>
      <line class="cls-3" x1="347.6" y1="480.8" x2="437.6" y2="480.8"/>
      <line class="cls-3" x1="327.9" y1="480.8" x2="336.6" y2="480.8"/>
      <line class="cls-3" x1="234.4" y1="172.7" x2="234.4" y2="182.5"/>
      <path class="cls-3" d="M327.2,84.7H270.7a36.2,36.2,0,0,0-33.2,21.7h0l-.2.4a34.5,34.5,0,0,0-2.9,13.8v40.7"/>
      <line class="cls-3" x1="347.5" y1="84.7" x2="327.2" y2="84.7"/>
      <line class="cls-3" x1="380.1" y1="84.7" x2="347.5" y2="84.7"/>
      <rect class="cls-4" x="256.9" y="309.2" width="313.9" height="72.49" rx="2.9"/>
      <path class="cls-5" d="M546.1,89.7H275.7a36.4,36.4,0,0,0-33.2,21.8H579.3A36.3,36.3,0,0,0,546.1,89.7Z"/>
      <path class="cls-2" d="M645.1,196.7H545a11.7,11.7,0,0,0-11.6,11.6v63.8A11.7,11.7,0,0,0,545,283.7h1.5v8.4a2.9,2.9,0,0,0,4.7,2.2l13.2-10.6h80.7a11.7,11.7,0,0,0,11.6-11.6V208.3A11.6,11.6,0,0,0,645.1,196.7Z"/>
      <path class="cls-6" d="M644.7,192.7h-100a11.6,11.6,0,0,0-11.6,11.6v63.8a11.6,11.6,0,0,0,11.6,11.6h1.4v8.4a3,3,0,0,0,4.8,2.3l13.2-10.7h80.6a11.6,11.6,0,0,0,11.6-11.6V204.3A11.6,11.6,0,0,0,644.7,192.7Z"/>
      <rect class="cls-7" x="545.4" y="244.1" width="98.6" height="20.3" rx="4.3"/>
      <path class="cls-8" d="M562.8,241.6h74.3a4.4,4.4,0,0,1,4.4,4.4v11.6a4.4,4.4,0,0,1-4.4,4.3H624"/>
      <path class="cls-8" d="M616.5,261.9H547.2a4.3,4.3,0,0,1-4.3-4.3V246a4.4,4.4,0,0,1,4.3-4.4h8.3"/>
      <circle class="cls-7" cx="553" cy="217" r="7.6"/>
      <rect class="cls-9" x="571.5" y="210.8" width="69.6" height="4.35" rx="2.2"/>
      <rect class="cls-9" x="571.5" y="220.2" width="53.6" height="4.35" rx="2.2"/>
      <g>
        <circle class="cls-6" cx="587.4" cy="254.3" r="1.4"/>
        <circle class="cls-6" cx="594.7" cy="254.3" r="1.4"/>
        <circle class="cls-6" cx="601.9" cy="254.3" r="1.4"/>
      </g>
      <rect class="cls-10" x="267" y="190.5" width="52.9" height="15.95" rx="5.8"/>
      <rect class="cls-7" x="333.7" y="274.6" width="38.5" height="11.6" rx="4.2"/>
      <rect class="cls-5" x="377.9" y="274.6" width="22.5" height="11.6" rx="4.2"/>
      <rect class="cls-11" x="327.2" y="190.5" width="52.9" height="15.95" rx="5.8"/>
      <path class="cls-9" d="M659.1,115.7a1.5,1.5,0,0,1-1.1-1.1,19.7,19.7,0,0,0-1.8-4.2,1.5,1.5,0,0,1,.1-1.7l2-3.2-4.5-4.5-3.2,2.1a1.5,1.5,0,0,1-1.6,0,24.7,24.7,0,0,0-4.2-1.7,1.8,1.8,0,0,1-1.2-1.2l-.8-3.7h-6.3l-.9,3.7a1.5,1.5,0,0,1-1.1,1.2,21.7,21.7,0,0,0-4.2,1.7,1.5,1.5,0,0,1-1.6,0l-3.2-2.1-4.5,4.5,2,3.2a1.5,1.5,0,0,1,.1,1.7,15.7,15.7,0,0,0-1.8,4.2,1.5,1.5,0,0,1-1.1,1.1l-3.8.8v6.4l3.8.8a1.5,1.5,0,0,1,1.1,1.1,15.7,15.7,0,0,0,1.8,4.2,1.3,1.3,0,0,1-.1,1.6l-2,3.2,4.5,4.6,3.2-2.1a1.5,1.5,0,0,1,1.6,0,21.7,21.7,0,0,0,4.2,1.7,1.5,1.5,0,0,1,1.1,1.2l.9,3.7h6.3l.8-3.7a1.8,1.8,0,0,1,1.2-1.2,24.7,24.7,0,0,0,4.2-1.7,1.5,1.5,0,0,1,1.6,0l3.2,2.1,4.5-4.6-2-3.2a1.3,1.3,0,0,1-.1-1.6,15.7,15.7,0,0,0,1.8-4.2,1.5,1.5,0,0,1,1.1-1.1l3.8-.8v-6.4Zm-19.5,13.4a9.4,9.4,0,1,1,9.5-9.4A9.4,9.4,0,0,1,639.6,129.1Z"/>
      <rect class="cls-6" x="263.6" y="236.4" width="52.9" height="52.89"/>
      <path class="cls-1" d="M696.8,229.4a.7.7,0,0,1-.8.3,7.6,7.6,0,0,0-2.6-.2.8.8,0,0,1-.7-.5l-1.1-1.9-3.4,1.1.2,2.1a1.2,1.2,0,0,1-.4.8,7.8,7.8,0,0,0-2,1.6,1,1,0,0,1-.9.2l-2-.6-1.7,3.2,1.6,1.4a1.1,1.1,0,0,1,.3.8,11.5,11.5,0,0,0-.3,2.6,1.2,1.2,0,0,1-.4.8l-1.9,1,1,3.4,2.1-.2a1.3,1.3,0,0,1,.9.4,7.8,7.8,0,0,0,1.6,2,1,1,0,0,1,.2.9l-.6,2,3.2,1.7,1.3-1.6a1.4,1.4,0,0,1,.9-.3,10.7,10.7,0,0,0,2.5.3.9.9,0,0,1,.8.4l1,1.9,3.5-1-.2-2.1c0-.4.1-.7.4-.8a10.6,10.6,0,0,0,2-1.7.9.9,0,0,1,.9-.2l2,.6,1.7-3.1-1.6-1.4a.8.8,0,0,1-.3-.9,10.7,10.7,0,0,0,.3-2.5.9.9,0,0,1,.4-.8l1.9-1-1.1-3.5-2.1.2a.9.9,0,0,1-.8-.4,10,10,0,0,0-1.6-2,.9.9,0,0,1-.2-.9l.6-2-3.2-1.7Zm1.5,13.2a5.4,5.4,0,0,1-7.2,2.1,5.3,5.3,0,1,1,7.2-2.1Z"/>
      <path class="cls-1" d="M168.4,271.5a1.4,1.4,0,0,1-.9.3,10.7,10.7,0,0,0-2.5-.3.8.8,0,0,1-.8-.5l-1-1.8-3.5,1,.2,2.1c0,.4-.1.7-.4.8a15.6,15.6,0,0,0-2,1.6.8.8,0,0,1-.9.3l-2-.6-1.7,3.1,1.6,1.4a.8.8,0,0,1,.3.9,10.7,10.7,0,0,0-.3,2.5.7.7,0,0,1-.4.8l-1.9,1,1.1,3.4h2.1a.9.9,0,0,1,.8.4,10,10,0,0,0,1.6,2,.8.8,0,0,1,.2.8l-.6,2.1,3.2,1.7,1.4-1.6a.7.7,0,0,1,.8-.3,7.6,7.6,0,0,0,2.6.2.8.8,0,0,1,.7.5l1.1,1.9,3.4-1.1-.2-2.1a1.2,1.2,0,0,1,.4-.8,10.8,10.8,0,0,0,2-1.6,1,1,0,0,1,.9-.2l2,.5,1.7-3.1-1.6-1.4a1.1,1.1,0,0,1-.3-.8,11.5,11.5,0,0,0,.3-2.6,1.2,1.2,0,0,1,.4-.8l1.9-1-1-3.4-2.1.2a1.1,1.1,0,0,1-.9-.5,7,7,0,0,0-1.6-1.9,1,1,0,0,1-.2-.9l.6-2-3.1-1.7Zm1.4,13.1a5.3,5.3,0,0,1-7.1,2.2,5.3,5.3,0,1,1,5-9.3A5.3,5.3,0,0,1,169.8,284.6Z"/>
      <g>
        <path class="cls-11" d="M276.5,196.3H275a1.5,1.5,0,0,0-1.4,1.5,1.4,1.4,0,0,0,1.4,1.4h1.5a1.4,1.4,0,0,0,1.4-1.4A1.5,1.5,0,0,0,276.5,196.3Z"/>
        <path class="cls-11" d="M283.7,196.3h-1.4a1.5,1.5,0,0,0-1.5,1.5,1.5,1.5,0,0,0,1.5,1.4h1.4a1.5,1.5,0,0,0,1.5-1.4A1.5,1.5,0,0,0,283.7,196.3Z"/>
        <path class="cls-11" d="M298.9,196.3h-4.3a1.5,1.5,0,0,0-1.5,1.5,1.5,1.5,0,0,0,1.5,1.4h4.3a1.5,1.5,0,0,0,1.5-1.4A1.5,1.5,0,0,0,298.9,196.3Z"/>
      </g>
      <g>
        <path class="cls-7" d="M341,196.3h-1.5a1.5,1.5,0,0,0-1.4,1.5,1.4,1.4,0,0,0,1.4,1.4H341a1.4,1.4,0,0,0,1.4-1.4A1.5,1.5,0,0,0,341,196.3Z"/>
        <path class="cls-7" d="M353.3,196.3h-4.4a1.5,1.5,0,0,0-1.4,1.5,1.4,1.4,0,0,0,1.4,1.4h4.4a1.4,1.4,0,0,0,1.4-1.4A1.5,1.5,0,0,0,353.3,196.3Z"/>
      </g>
      <rect class="cls-7" x="267.4" y="240.2" width="45.3" height="45.29"/>
      <path class="cls-2" d="M335.9,242.7h27.5a2.2,2.2,0,0,0,2.2-2.2,2.1,2.1,0,0,0-2.2-2.1H335.9a2.1,2.1,0,0,0-2.2,2.1A2.2,2.2,0,0,0,335.9,242.7Z"/>
      <path class="cls-2" d="M335.9,252.8h6.5a2.1,2.1,0,0,0,2.2-2.1,2.2,2.2,0,0,0-2.2-2.2h-6.5a2.2,2.2,0,0,0-2.2,2.2A2.1,2.1,0,0,0,335.9,252.8Z"/>
      <path class="cls-2" d="M349.7,250.7a2.1,2.1,0,0,0,2.1,2.1h27.6a2.1,2.1,0,0,0,2.2-2.1,2.2,2.2,0,0,0-2.2-2.2H351.8A2.1,2.1,0,0,0,349.7,250.7Z"/>
      <path class="cls-2" d="M406.2,250.7a2.2,2.2,0,0,0-2.2-2.2H388.8a2.2,2.2,0,0,0-2.2,2.2,2.1,2.1,0,0,0,2.2,2.1H404A2.1,2.1,0,0,0,406.2,250.7Z"/>
      <path class="cls-2" d="M473.6,248.5h-50a2.2,2.2,0,0,0-2.2,2.2,2.1,2.1,0,0,0,2.2,2.1h50a2.1,2.1,0,0,0,2.2-2.1A2.2,2.2,0,0,0,473.6,248.5Z"/>
      <path class="cls-2" d="M383,242.7h50a2.2,2.2,0,0,0,2.2-2.2,2.1,2.1,0,0,0-2.2-2.1H383a2.1,2.1,0,0,0-2.2,2.1A2.2,2.2,0,0,0,383,242.7Z"/>
      <path class="cls-2" d="M452.6,242.7h50a2.2,2.2,0,0,0,2.2-2.2,2.1,2.1,0,0,0-2.2-2.1h-50a2.1,2.1,0,0,0-2.2,2.1A2.2,2.2,0,0,0,452.6,242.7Z"/>
      <path class="cls-2" d="M372.9,242.7h.7a2.2,2.2,0,0,0,2.2-2.2,2.1,2.1,0,0,0-2.2-2.1h-.7a2.1,2.1,0,0,0-2.2,2.1A2.2,2.2,0,0,0,372.9,242.7Z"/>
      <path class="cls-2" d="M442.5,242.7h.7a2.2,2.2,0,0,0,2.2-2.2,2.1,2.1,0,0,0-2.2-2.1h-.7a2.1,2.1,0,0,0-2.2,2.1A2.2,2.2,0,0,0,442.5,242.7Z"/>
      <path class="cls-2" d="M414.2,248.5h-.7a2.2,2.2,0,0,0-2.2,2.2,2.1,2.1,0,0,0,2.2,2.1h.7a2.1,2.1,0,0,0,2.2-2.1A2.2,2.2,0,0,0,414.2,248.5Z"/>
      <path class="cls-2" d="M502.6,248.5h-9.4a2.2,2.2,0,0,0-2.2,2.2,2.1,2.1,0,0,0,2.2,2.1h9.4a2.1,2.1,0,0,0,2.2-2.1A2.2,2.2,0,0,0,502.6,248.5Z"/>
      <path class="cls-2" d="M483.1,248.5a2.2,2.2,0,0,0-2.2,2.2,2.1,2.1,0,0,0,2.2,2.1h.7a2.1,2.1,0,0,0,2.2-2.1,2.2,2.2,0,0,0-2.2-2.2Z"/>
      <path class="cls-2" d="M361.3,258.6H335.9a2.2,2.2,0,1,0,0,4.4h25.4a2.2,2.2,0,0,0,0-4.4Z"/>
      <path class="cls-2" d="M397.5,258.6H370.7a2.2,2.2,0,0,0,0,4.4h26.8a2.2,2.2,0,1,0,0-4.4Z"/>
      <path class="cls-2" d="M450.4,258.6H418.5a2.2,2.2,0,0,0,0,4.4h31.9a2.2,2.2,0,1,0,0-4.4Z"/>
      <path class="cls-2" d="M409.1,258.6h-2.2a2.2,2.2,0,0,0,0,4.4h2.2a2.2,2.2,0,1,0,0-4.4Z"/>
      <path class="cls-2" d="M502.6,258.6H483.1a2.2,2.2,0,0,0,0,4.4h19.5a2.2,2.2,0,1,0,0-4.4Z"/>
      <path class="cls-2" d="M473.6,258.6H459.9a2.2,2.2,0,1,0,0,4.4h13.7a2.2,2.2,0,1,0,0-4.4Z"/>
      <polygon class="cls-10" points="267.4 267.6 282.8 258.8 312.7 281.3 312.7 285.5 267.4 285.5 267.4 267.6"/>
      <polygon class="cls-5" points="312.7 268.5 312.7 281.3 293.4 266.8 303 261.2 312.7 268.5"/>
      <circle class="cls-6" cx="299" cy="252.3" r="4"/>
      <rect class="cls-10" x="333.7" y="357.2" width="38.5" height="11.6" rx="4.2"/>
      <rect class="cls-11" x="377.9" y="357.2" width="22.5" height="11.6" rx="4.2"/>
      <rect class="cls-7" x="263.6" y="319" width="52.9" height="52.89"/>
      <rect class="cls-11" x="267.4" y="322.8" width="45.3" height="45.29"/>
      <g>
        <path class="cls-7" d="M335.9,325.3h27.5a2.1,2.1,0,0,0,2.2-2.1,2.2,2.2,0,0,0-2.2-2.2H335.9a2.2,2.2,0,0,0-2.2,2.2A2.1,2.1,0,0,0,335.9,325.3Z"/>
        <path class="cls-7" d="M335.9,335.5h6.5a2.2,2.2,0,1,0,0-4.4h-6.5a2.2,2.2,0,1,0,0,4.4Z"/>
        <path class="cls-7" d="M349.7,333.3a2.1,2.1,0,0,0,2.1,2.2h27.6a2.2,2.2,0,1,0,0-4.4H351.8A2.1,2.1,0,0,0,349.7,333.3Z"/>
        <path class="cls-7" d="M406.2,333.3a2.2,2.2,0,0,0-2.2-2.2H388.8a2.2,2.2,0,0,0,0,4.4H404A2.2,2.2,0,0,0,406.2,333.3Z"/>
        <path class="cls-7" d="M473.6,331.1h-50a2.2,2.2,0,0,0,0,4.4h50a2.2,2.2,0,1,0,0-4.4Z"/>
        <path class="cls-7" d="M383,325.3h50a2.1,2.1,0,0,0,2.2-2.1A2.2,2.2,0,0,0,433,321H383a2.2,2.2,0,0,0-2.2,2.2A2.1,2.1,0,0,0,383,325.3Z"/>
        <path class="cls-7" d="M452.6,325.3h50a2.1,2.1,0,0,0,2.2-2.1,2.2,2.2,0,0,0-2.2-2.2h-50a2.2,2.2,0,0,0-2.2,2.2A2.1,2.1,0,0,0,452.6,325.3Z"/>
        <path class="cls-7" d="M372.9,325.3h.7a2.1,2.1,0,0,0,2.2-2.1,2.2,2.2,0,0,0-2.2-2.2h-.7a2.2,2.2,0,0,0-2.2,2.2A2.1,2.1,0,0,0,372.9,325.3Z"/>
        <path class="cls-7" d="M442.5,325.3h.7a2.1,2.1,0,0,0,2.2-2.1,2.2,2.2,0,0,0-2.2-2.2h-.7a2.2,2.2,0,0,0-2.2,2.2A2.1,2.1,0,0,0,442.5,325.3Z"/>
        <path class="cls-7" d="M414.2,331.1h-.7a2.2,2.2,0,1,0,0,4.4h.7a2.2,2.2,0,0,0,0-4.4Z"/>
        <path class="cls-7" d="M502.6,331.1h-9.4a2.2,2.2,0,0,0,0,4.4h9.4a2.2,2.2,0,1,0,0-4.4Z"/>
        <path class="cls-7" d="M483.1,331.1a2.2,2.2,0,0,0,0,4.4h.7a2.2,2.2,0,0,0,0-4.4Z"/>
        <path class="cls-7" d="M361.3,341.3H335.9a2.2,2.2,0,0,0-2.2,2.2,2.1,2.1,0,0,0,2.2,2.1h25.4a2.1,2.1,0,0,0,2.1-2.1A2.1,2.1,0,0,0,361.3,341.3Z"/>
        <path class="cls-7" d="M397.5,341.3H370.7a2.2,2.2,0,0,0-2.2,2.2,2.1,2.1,0,0,0,2.2,2.1h26.8a2.1,2.1,0,0,0,2.2-2.1A2.2,2.2,0,0,0,397.5,341.3Z"/>
        <path class="cls-7" d="M450.4,341.3H418.5a2.1,2.1,0,0,0-2.1,2.2,2.1,2.1,0,0,0,2.1,2.1h31.9a2.1,2.1,0,0,0,2.2-2.1A2.2,2.2,0,0,0,450.4,341.3Z"/>
        <path class="cls-7" d="M409.1,341.3h-2.2a2.1,2.1,0,0,0-2.1,2.2,2.1,2.1,0,0,0,2.1,2.1h2.2a2.1,2.1,0,0,0,2.2-2.1A2.2,2.2,0,0,0,409.1,341.3Z"/>
        <path class="cls-7" d="M502.6,341.3H483.1a2.2,2.2,0,0,0-2.2,2.2,2.1,2.1,0,0,0,2.2,2.1h19.5a2.1,2.1,0,0,0,2.2-2.1A2.2,2.2,0,0,0,502.6,341.3Z"/>
        <path class="cls-7" d="M473.6,341.3H459.9a2.2,2.2,0,0,0-2.2,2.2,2.1,2.1,0,0,0,2.2,2.1h13.7a2.1,2.1,0,0,0,2.2-2.1A2.2,2.2,0,0,0,473.6,341.3Z"/>
      </g>
      <polygon class="cls-10" points="267.4 350.3 282.8 341.4 312.7 363.9 312.7 368.1 267.4 368.1 267.4 350.3"/>
      <polygon class="cls-5" points="312.7 351.2 312.7 363.9 293.4 349.4 303 343.9 312.7 351.2"/>
      <circle class="cls-6" cx="299" cy="335" r="4"/>
      <rect class="cls-12" x="333.7" y="439.9" width="38.5" height="11.6" rx="4.2"/>
      <rect class="cls-7" x="377.9" y="439.9" width="22.5" height="11.6" rx="4.2"/>
      <rect class="cls-6" x="263.6" y="401.7" width="52.9" height="52.89"/>
      <rect class="cls-7" x="267.4" y="405.5" width="45.3" height="45.29"/>
      <path class="cls-2" d="M335.9,408h27.5a2.2,2.2,0,1,0,0-4.4H335.9a2.2,2.2,0,1,0,0,4.4Z"/>
      <path class="cls-2" d="M335.9,418.1h6.5a2.1,2.1,0,0,0,2.2-2.1,2.2,2.2,0,0,0-2.2-2.2h-6.5a2.2,2.2,0,0,0-2.2,2.2A2.1,2.1,0,0,0,335.9,418.1Z"/>
      <path class="cls-2" d="M349.7,416a2.1,2.1,0,0,0,2.1,2.1h27.6a2.1,2.1,0,0,0,2.2-2.1,2.2,2.2,0,0,0-2.2-2.2H351.8A2.1,2.1,0,0,0,349.7,416Z"/>
      <path class="cls-2" d="M406.2,416a2.2,2.2,0,0,0-2.2-2.2H388.8a2.2,2.2,0,0,0-2.2,2.2,2.1,2.1,0,0,0,2.2,2.1H404A2.1,2.1,0,0,0,406.2,416Z"/>
      <path class="cls-2" d="M473.6,413.8h-50a2.2,2.2,0,0,0-2.2,2.2,2.1,2.1,0,0,0,2.2,2.1h50a2.1,2.1,0,0,0,2.2-2.1A2.2,2.2,0,0,0,473.6,413.8Z"/>
      <path class="cls-2" d="M383,408h50a2.2,2.2,0,1,0,0-4.4H383a2.2,2.2,0,1,0,0,4.4Z"/>
      <path class="cls-2" d="M452.6,408h50a2.2,2.2,0,1,0,0-4.4h-50a2.2,2.2,0,0,0,0,4.4Z"/>
      <path class="cls-2" d="M372.9,408h.7a2.2,2.2,0,1,0,0-4.4h-.7a2.2,2.2,0,1,0,0,4.4Z"/>
      <path class="cls-2" d="M442.5,408h.7a2.2,2.2,0,0,0,0-4.4h-.7a2.2,2.2,0,1,0,0,4.4Z"/>
      <path class="cls-2" d="M414.2,413.8h-.7a2.2,2.2,0,0,0-2.2,2.2,2.1,2.1,0,0,0,2.2,2.1h.7a2.1,2.1,0,0,0,2.2-2.1A2.2,2.2,0,0,0,414.2,413.8Z"/>
      <path class="cls-2" d="M502.6,413.8h-9.4A2.2,2.2,0,0,0,491,416a2.1,2.1,0,0,0,2.2,2.1h9.4a2.1,2.1,0,0,0,2.2-2.1A2.2,2.2,0,0,0,502.6,413.8Z"/>
      <path class="cls-2" d="M483.1,413.8a2.2,2.2,0,0,0-2.2,2.2,2.1,2.1,0,0,0,2.2,2.1h.7A2.1,2.1,0,0,0,486,416a2.2,2.2,0,0,0-2.2-2.2Z"/>
      <path class="cls-2" d="M361.3,423.9H335.9a2.2,2.2,0,0,0,0,4.4h25.4a2.2,2.2,0,0,0,0-4.4Z"/>
      <path class="cls-2" d="M397.5,423.9H370.7a2.2,2.2,0,0,0,0,4.4h26.8a2.2,2.2,0,0,0,0-4.4Z"/>
      <path class="cls-2" d="M450.4,423.9H418.5a2.2,2.2,0,0,0,0,4.4h31.9a2.2,2.2,0,1,0,0-4.4Z"/>
      <path class="cls-2" d="M409.1,423.9h-2.2a2.2,2.2,0,0,0,0,4.4h2.2a2.2,2.2,0,0,0,0-4.4Z"/>
      <path class="cls-2" d="M502.6,423.9H483.1a2.2,2.2,0,0,0,0,4.4h19.5a2.2,2.2,0,0,0,0-4.4Z"/>
      <path class="cls-2" d="M473.6,423.9H459.9a2.2,2.2,0,0,0,0,4.4h13.7a2.2,2.2,0,0,0,0-4.4Z"/>
      <polygon class="cls-10" points="267.4 432.9 282.8 424.1 312.7 446.6 312.7 450.8 267.4 450.8 267.4 432.9"/>
      <polygon class="cls-5" points="312.7 433.8 312.7 446.6 293.4 432 303 426.5 312.7 433.8"/>
      <circle class="cls-6" cx="299" cy="417.6" r="4"/>
      <g>
        <path class="cls-10" d="M139.8,201H92a8.7,8.7,0,0,0-8.7,8.7v29a8.7,8.7,0,0,0,8.7,8.7h16.4l7.5,7.5,7.5-7.5h16.4a8.7,8.7,0,0,0,8.7-8.7v-29A8.7,8.7,0,0,0,139.8,201Z"/>
        <path class="cls-11" d="M139.4,196.3H91.6a8.7,8.7,0,0,0-8.7,8.7v29a8.7,8.7,0,0,0,8.7,8.7H108l7.5,7.5,7.5-7.5h16.4a8.7,8.7,0,0,0,8.7-8.7V205A8.7,8.7,0,0,0,139.4,196.3Z"/>
        <g>
          <path class="cls-6" d="M115.1,228.2a1.8,1.8,0,0,1-1.8-1.4c-.1-.4-.9-3.9,1.2-6a14.9,14.9,0,0,1,2-1.5c1.5-.8,3.5-1.6,4.1-4.4a4.8,4.8,0,0,0-4.7-5.6c-5,0-5.5,5.1-5.5,5.6a2,2,0,0,1-2,1.7,1.9,1.9,0,0,1-1.7-1.9,9.6,9.6,0,0,1,9-9,8.2,8.2,0,0,1,6.9,3.2,8.8,8.8,0,0,1,1.4,7.3c-1.3,4-4,5.3-5.6,6.3l-1.3.8a3.4,3.4,0,0,0-.3,2.7,1.7,1.7,0,0,1-1.3,2.1Z"/>
          <circle class="cls-6" cx="115.4" cy="232.6" r="2.2"/>
        </g>
      </g>
      <rect class="cls-2" x="123.5" y="113.7" width="79.7" height="63.79" rx="17.4"/>
      <circle class="cls-6" cx="142.3" cy="139.8" r="7.2"/>
      <circle class="cls-7" cx="187.8" cy="161" r="3.1"/>
      <circle class="cls-7" cx="177" cy="161" r="3.1"/>
      <rect class="cls-6" x="158.3" y="132.5" width="24.6" height="5.07" rx="2.5"/>
      <rect class="cls-6" x="158.3" y="141.9" width="13.8" height="5.07" rx="2.5"/>
      <path class="cls-10" d="M582.4,309.4h35.4a17.5,17.5,0,0,1,17.5,17.5V433.2a17.5,17.5,0,0,1-17.5,17.5H582.4a0,0,0,0,1,0,0V309.4A0,0,0,0,1,582.4,309.4Z"/>
      <path class="cls-11" d="M198.9,200.7h21.4a19.2,19.2,0,0,1,19.2,19.2V337.3a19.2,19.2,0,0,1-19.2,19.2H198.9a0,0,0,0,1,0,0V200.7A0,0,0,0,1,198.9,200.7Z" transform="translate(438.4 557.2) rotate(180)"/>
      <rect class="cls-6" x="515.3" y="95.9" width="9.7" height="9.73" rx="4.9"/>
      <rect class="cls-9" x="530.4" y="95.9" width="9.7" height="9.73" rx="4.9"/>
      <rect class="cls-2" x="545.5" y="95.9" width="9.7" height="9.73" rx="4.9"/>
      <g>
        <path class="cls-2" d="M718.2,156.4l-16.6-13.6a3.8,3.8,0,0,0-5.3.5l-27.6,33.9a3.7,3.7,0,0,0,.5,5.2L693,201.9a3.7,3.7,0,0,0,5.2-.6L720,174.7Z"/>
        <rect class="cls-6" x="689.3" y="171.7" width="14.9" height="2.79" rx="1.4" transform="translate(266.7 -401.8) rotate(39.3)"/>
        <rect class="cls-6" x="687.3" y="177.4" width="9.3" height="2.79" rx="1.4" transform="matrix(0.77, 0.63, -0.63, 0.77, 269.3, -397.51)"/>
        <path class="cls-7" d="M718.2,156.4l-5.9,7.2a3.7,3.7,0,0,0,.5,5.2l7.2,5.9Z"/>
      </g>
      <rect class="cls-11" x="457" y="470" width="37.7" height="37.7" rx="5.8"/>
      <rect class="cls-13" x="453.7" y="466.7" width="37.7" height="37.7" rx="5.8"/>
      <path class="cls-6" d="M480.4,494.2l-5.3-5.3,5.4-5.4a1.6,1.6,0,0,0-1.1-2.6h0a1.5,1.5,0,0,0-1.1.4l-7.6,7.6,7.6,7.5a1.4,1.4,0,0,0,1.1.4h0A1.5,1.5,0,0,0,480.4,494.2Z"/>
      <rect class="cls-10" x="503.7" y="470" width="37.7" height="37.7" rx="5.8" transform="translate(1045.2 977.7) rotate(-180)"/>
      <path class="cls-6" d="M518,494.2l5.3-5.3-5.4-5.4a1.6,1.6,0,0,1,1.1-2.6h0a1.5,1.5,0,0,1,1.1.4l7.6,7.6-7.6,7.5a1.2,1.2,0,0,1-1,.4h0A1.5,1.5,0,0,1,518,494.2Z"/>
      <rect class="cls-13" x="500.5" y="467.1" width="37.7" height="37.7" rx="5.8"/>
      <path class="cls-10" d="M581.4,117.6H240.5a27.3,27.3,0,0,1,1.9-5.7H579.5A34.7,34.7,0,0,1,581.4,117.6Z"/>
      <line class="cls-8" x1="532.4" y1="377.4" x2="527.6" y2="377.4"/>
      <path class="cls-8" d="M285.2,304.9H563.5a2.9,2.9,0,0,1,2.9,2.9v66.7a2.9,2.9,0,0,1-2.9,2.9H541"/>
      <path class="cls-8" d="M517.5,377.4H255.4a2.9,2.9,0,0,1-2.9-2.9V307.8a2.9,2.9,0,0,1,2.9-2.9h12"/>
      <rect class="cls-10" x="228.2" y="200.7" width="10.9" height="155.5"/>
      <rect class="cls-14" x="582.7" y="309.4" width="14.5" height="141.36"/>
      <line class="cls-3" x1="577.3" y1="394.9" x2="577.3" y2="390.6"/>
      <line class="cls-3" x1="391.7" y1="84.7" x2="435.9" y2="84.7"/>
      <line class="cls-3" x1="577.3" y1="299.2" x2="577.3" y2="380.4"/>
      <g>
        <path class="cls-6" d="M497.9,152.1a21.9,21.9,0,0,1-.3,3.6,21.4,21.4,0,0,1-6.2,12,22,22,0,0,1-15.6,6.5H289.1a22.2,22.2,0,0,1-21.8-18.5A22.2,22.2,0,0,1,289.1,130H475.8A22.1,22.1,0,0,1,497.9,152.1Z"/>
        <path class="cls-2" d="M497.9,157.9A22.2,22.2,0,0,1,475.8,180H289.1A22.1,22.1,0,0,1,267,157.9a21,21,0,0,1,.3-3.6,22.2,22.2,0,0,0,21.8,18.4H475.8a22,22,0,0,0,21.8-18.4A21,21,0,0,1,497.9,157.9Z"/>
        <path class="cls-6" d="M497.6,155.7a21.4,21.4,0,0,1-6.2,12,22,22,0,0,1-15.6,6.5H289.1a22.2,22.2,0,0,1-21.8-18.5,22.4,22.4,0,0,1,6.2-12,22,22,0,0,1,15.6-6.5H475.8A22.1,22.1,0,0,1,497.6,155.7Z"/>
        <rect class="cls-5" x="510.2" y="132.9" width="48.6" height="48.57" rx="24.3"/>
        <rect class="cls-10" x="510.2" y="127.8" width="48.6" height="48.57" rx="24.3"/>
        <g>
          <path class="cls-6" d="M531.6,140a8.7,8.7,0,0,0,0,17.4,8.4,8.4,0,0,0,4.6-1.3,9.5,9.5,0,0,0,2.1-1.9,8.8,8.8,0,0,0,2-5.5A8.7,8.7,0,0,0,531.6,140Zm2.7,14.2a5.2,5.2,0,0,1-2.7.7,6.2,6.2,0,0,1-6.2-6.2,6.1,6.1,0,0,1,6.2-6.1,6.2,6.2,0,0,1,4.9,9.8A5.5,5.5,0,0,1,534.3,154.2Z"/>
          <path class="cls-6" d="M545.8,163.7a1.5,1.5,0,0,1-2.1,0l-7.5-7.6a9.5,9.5,0,0,0,2.1-1.9l7.5,7.5A1.5,1.5,0,0,1,545.8,163.7Z"/>
        </g>
        <g>
          <circle class="cls-2" cx="295.3" cy="154.3" r="3.6"/>
          <circle class="cls-2" cx="313.4" cy="154.3" r="3.6"/>
          <circle class="cls-2" cx="331.6" cy="154.3" r="3.6"/>
          <circle class="cls-2" cx="349.7" cy="154.3" r="3.6"/>
          <circle class="cls-2" cx="367.8" cy="154.3" r="3.6"/>
          <circle class="cls-2" cx="385.9" cy="154.3" r="3.6"/>
        </g>
      </g>
      <path class="cls-13" d="M136.5,193.4H88.7a8.7,8.7,0,0,0-8.7,8.7v29a8.7,8.7,0,0,0,8.7,8.7h16.4l7.5,7.5,7.5-7.5h16.4a8.7,8.7,0,0,0,8.7-8.7v-29A8.7,8.7,0,0,0,136.5,193.4Z"/>
      <path class="cls-8" d="M616.5,188.3H540.3a11.6,11.6,0,0,0-11.6,11.6v63.8a11.6,11.6,0,0,0,11.6,11.6h1.5"/>
      <path class="cls-8" d="M546.5,286l13.2-10.7h80.7A11.7,11.7,0,0,0,652,263.7V199.9a11.7,11.7,0,0,0-11.6-11.6H630.2"/>
    </g>
  </g>
</svg>
