<svg xmlns="http://www.w3.org/2000/svg" viewBox="0 0 800 600">
  <defs>
    <style>
      .cls-1 {
        fill: #d7e8f4;
      }

      .cls-2 {
        fill: #0e1935;
      }

      .cls-3 {
        fill: #1c2f60;
      }

      .cls-4 {
        fill: #254282;
      }

      .cls-5 {
        fill: #badcf7;
      }

      .cls-6 {
        fill: #fff;
      }

      .cls-7 {
        fill: #78bef9;
      }

      .cls-13, .cls-8 {
        fill: #1389ea;
      }

      .cls-10, .cls-14, .cls-15, .cls-16, .cls-17, .cls-9 {
        fill: none;
        stroke-miterlimit: 10;
        stroke-width: 3px;
      }

      .cls-17, .cls-9 {
        stroke: #1389ea;
      }

      .cls-10, .cls-14, .cls-15, .cls-17, .cls-9 {
        stroke-linecap: round;
      }

      .cls-9 {
        stroke-dasharray: 8 12;
      }

      .cls-10 {
        stroke: #e4f0f9;
      }

      .cls-11 {
        fill: #06c;
      }

      .cls-12 {
        fill: #e4f0f9;
      }

      .cls-13 {
        opacity: 0.3;
      }

      .cls-14 {
        stroke: #1c2f60;
      }

      .cls-15 {
        stroke: #badcf7;
      }

      .cls-16 {
        stroke: #fff;
      }
    </style>
  </defs>
  <g data-name="Layer 1">
    <g>
      <ellipse class="cls-1" cx="482.3" cy="396" rx="237.7" ry="19.4"/>
      <ellipse class="cls-1" cx="253.6" cy="457.3" rx="133.8" ry="15.6"/>
      <path class="cls-2" d="M673.4,376.8a45.3,45.3,0,0,1-.9,9.1l-13.1,9.7c-.3-24.6-19.5-54.2-44.2-54.2a45.3,45.3,0,0,0-9.1.9,41.7,41.7,0,0,0-20.8-77.8,40.3,40.3,0,0,0-12.1,1.8,79.5,79.5,0,0,0,1.6-16.2,81.1,81.1,0,0,0-122.1-70,80.6,80.6,0,0,1,54.2-20.7c35.2,0,63.7,23,76.4,53.8,6.1,14.7,4.7,40.3,4.7,40.3s33.2-6.9,49.7,28.8c11.7,25.5-4,48.2-4,48.2C653.1,329.8,673.4,351.9,673.4,376.8Z"/>
      <path class="cls-3" d="M615.2,341.4a45.3,45.3,0,0,0-9.1.9,41.7,41.7,0,0,0-20.8-77.8,40.3,40.3,0,0,0-12.1,1.8,79.5,79.5,0,0,0,1.6-16.2,81.1,81.1,0,0,0-162.1-1,41.8,41.8,0,0,0-80.5,15.5,39.5,39.5,0,0,0,1.7,11.5l20.5,119.4H659.3a44.3,44.3,0,0,0,1-9A45.1,45.1,0,0,0,615.2,341.4Z"/>
      <path class="cls-4" d="M553.3,195.1,414.9,395.5H354.4L333.9,276.1a39.5,39.5,0,0,1-1.7-11.5,41.8,41.8,0,0,1,80.5-15.5,81,81,0,0,1,140.6-54Z"/>
      <path class="cls-2" d="M416.5,225.4a77.9,77.9,0,0,0-3.8,23.7,41.9,41.9,0,0,0-38.8-26.2,42.6,42.6,0,0,0-17.5,3.8,41.6,41.6,0,0,1,60.1-1.3Z"/>
      <path class="cls-3" d="M499,312.6a47.4,47.4,0,0,0-31.7-55,49.1,49.1,0,0,0-14.7-2.3h-1.8v-5.2a1.8,1.8,0,0,0-3.1-1.3L435.6,261a1.7,1.7,0,0,0,0,2.6l12.1,12.2a1.7,1.7,0,0,0,2,.4,1.8,1.8,0,0,0,1.1-1.7v-5.1h1.8a31.4,31.4,0,0,1,14.7,3.4,33.3,33.3,0,0,1,18.3,35,32.8,32.8,0,0,1-7.5,16.6,2.7,2.7,0,0,0,.1,3.7l6.1,6.1a2.8,2.8,0,0,0,4-.1A47.5,47.5,0,0,0,499,312.6Z"/>
      <path class="cls-3" d="M406.4,292.6a47.3,47.3,0,0,0,31.8,55,45.1,45.1,0,0,0,14.6,2.4h1.8v5.2a1.8,1.8,0,0,0,1.1,1.7,1.7,1.7,0,0,0,2-.4l12.1-12.2a1.7,1.7,0,0,0,0-2.6l-12.1-12.2a1.8,1.8,0,0,0-3.1,1.3v5.2h-1.8a33.5,33.5,0,0,1-25.5-55.1,2.7,2.7,0,0,0-.1-3.7l-6-6a2.9,2.9,0,0,0-4.1.1A46.6,46.6,0,0,0,406.4,292.6Z"/>
      <rect class="cls-1" x="586" y="376.4" width="35.7" height="7.76" rx="3.9"/>
      <g>
        <path class="cls-5" d="M94,233.2l-12.8,8.1a2.7,2.7,0,0,0-.8,3.7l16.7,26.2a2.8,2.8,0,0,0,3.7.8l18.3-11.8a2.5,2.5,0,0,0,.8-3.6L106.8,236Z"/>
        <rect class="cls-6" x="95.3" y="250.4" width="10.6" height="1.98" rx="1" transform="translate(-119.4 93.5) rotate(-32.5)"/>
        <rect class="cls-6" x="100.1" y="254.8" width="6.6" height="1.98" rx="1" transform="translate(-121.3 95.7) rotate(-32.5)"/>
        <path class="cls-7" d="M94,233.2l3.6,5.5a2.5,2.5,0,0,0,3.6.8l5.6-3.5Z"/>
      </g>
      <g>
        <path class="cls-5" d="M696.5,255.7l-13.1-12.5a3.1,3.1,0,0,0-4.4.1L653.4,270a3.1,3.1,0,0,0,.1,4.4l18.7,17.9a3.3,3.3,0,0,0,4.5,0l20.1-21Z"/>
        <rect class="cls-6" x="671" y="267.2" width="12.6" height="2.36" rx="1.2" transform="translate(374.6 -394.3) rotate(43.8)"/>
        <rect class="cls-6" x="669" y="271.7" width="7.9" height="2.36" rx="1.2" transform="translate(376.5 -390) rotate(43.8)"/>
        <path class="cls-7" d="M696.5,255.7l-5.5,5.7a3.1,3.1,0,0,0,.1,4.4l5.7,5.5Z"/>
      </g>
      <circle class="cls-7" cx="627.5" cy="168.3" r="26.3"/>
      <path class="cls-8" d="M653.8,154.9a29.4,29.4,0,0,0-26.3-16.1v29.5Z"/>
      <circle class="cls-8" cx="428.9" cy="441" r="4.5"/>
      <circle class="cls-8" cx="456.7" cy="441" r="4.5"/>
      <path class="cls-9" d="M253.4,460.8v11.7a6.9,6.9,0,0,0,6.9,7h135a6.9,6.9,0,0,0,6.9-7V447.6a7,7,0,0,1,7-6.9H484a7,7,0,0,0,7-7v-1.4a6.9,6.9,0,0,0-7-6.9H441.8a6.9,6.9,0,0,1-7-6.9h0a7,7,0,0,1,7-7H594.9a6.9,6.9,0,0,0,6.9-6.9v-9"/>
      <path class="cls-10" d="M489.3,179a42.3,42.3,0,0,0-5,.5"/>
      <path class="cls-10" d="M474.6,181.5a72.7,72.7,0,0,0-51.4,55.1"/>
      <path class="cls-10" d="M615.1,326.1a25.4,25.4,0,0,0,1.6-2.8"/>
      <path class="cls-10" d="M597.6,341a38.1,38.1,0,0,0,13.7-9.7"/>
      <rect class="cls-11" x="174.2" y="300" width="182.3" height="160.78" rx="16.6"/>
      <rect class="cls-7" x="175.6" y="191.9" width="169.8" height="252.56" rx="16.6"/>
      <rect class="cls-5" x="165.9" y="205" width="169.8" height="239.39" rx="16.6"/>
      <rect class="cls-12" x="156.2" y="218.2" width="169.8" height="226.22" rx="16.6"/>
      <circle class="cls-6" cx="241.1" cy="281.3" r="37.4"/>
      <path class="cls-7" d="M253.4,270.8v6.7h-5.7v-6.6a6.6,6.6,0,1,0-13.2,0v6.6h-5.6v-6.7a12.3,12.3,0,0,1,24.5,0Z"/>
      <path class="cls-8" d="M253.4,277.5H228.9a4.8,4.8,0,0,0-3.8,4.6v17a4.7,4.7,0,0,0,4.7,4.7h22.6a4.7,4.7,0,0,0,4.7-4.7v-17A4.8,4.8,0,0,0,253.4,277.5ZM243.2,292l.7,5a.8.8,0,0,1-.2.8.9.9,0,0,1-.7.3h-3.8a.9.9,0,0,1-.9-1.1l.7-5a4.9,4.9,0,0,1-2.6-4.2,4.7,4.7,0,1,1,6.8,4.2Z"/>
      <path class="cls-7" d="M343,460.8H173.9a16.7,16.7,0,0,1-16-12.1l-4-13.8-21-72.4a16.6,16.6,0,0,1,16-21.3H295.8a16.6,16.6,0,0,1,16,12l2.7,9.2,23,79.5Z"/>
      <circle class="cls-5" cx="301.2" cy="444.2" r="5"/>
      <circle class="cls-5" cx="318.5" cy="444.2" r="5"/>
      <path class="cls-6" d="M181.7,375.5l.2.7a2.1,2.1,0,0,1-2,2.6H152.4a2.1,2.1,0,0,1-2-1.5l-4.9-16.8a2.1,2.1,0,0,1,2-2.6H175a2.1,2.1,0,0,1,2,1.5l4.7,16.1"/>
      <rect class="cls-5" x="185.3" y="358.2" width="60.3" height="3.47" rx="1.7"/>
      <rect class="cls-5" x="188.8" y="366.5" width="20.1" height="3.47" rx="1.7"/>
      <path class="cls-11" d="M308.2,232l-10.7-6.7L286.9,232V204.5a3.7,3.7,0,0,1,3.6-3.7h14.1a3.7,3.7,0,0,1,3.6,3.7Z"/>
      <circle class="cls-1" cx="632.3" cy="380.3" r="3.9"/>
      <circle class="cls-13" cx="428.9" cy="441" r="7.6"/>
      <circle class="cls-13" cx="456.7" cy="441" r="7.6"/>
      <path class="cls-14" d="M305.5,227.8l-10.7-6.7-10.7,6.7V200.4a3.6,3.6,0,0,1,3.6-3.7h14.1a3.7,3.7,0,0,1,3.7,3.7Z"/>
      <path class="cls-8" d="M343,460.8H173.9a16.7,16.7,0,0,1-16-12.1l-4-13.8c22.6,2.5,74.3,4.8,110.8-19.5,30.3-20.2,43.9-40.7,49.8-53l23,79.5Z"/>
      <circle class="cls-15" cx="118.8" cy="213.3" r="5.5"/>
      <circle class="cls-7" cx="135.4" cy="214.3" r="2.6"/>
      <g>
        <path class="cls-12" d="M381.5,161.5l-107.9-.6a7.1,7.1,0,0,1-7.1-7.1V127.6a7.1,7.1,0,0,1,7.2-7.1l107.9.6a7.1,7.1,0,0,1,7.1,7.1v26.2A7.1,7.1,0,0,1,381.5,161.5Z"/>
        <path class="cls-5" d="M358.5,137.4l-48.5-.2a2.7,2.7,0,0,1-2.7-2.7h0a2.8,2.8,0,0,1,2.7-2.7l48.6.3a2.7,2.7,0,0,1,2.7,2.7h0A2.8,2.8,0,0,1,358.5,137.4Z"/>
        <rect class="cls-5" x="307.3" y="143.8" width="22.1" height="5.38" rx="2.7" transform="translate(0.7 -1.5) rotate(0.3)"/>
        <path class="cls-7" d="M290,132a9.4,9.4,0,0,1,1.1,4.5,9.9,9.9,0,0,1-9.9,9.8,9.4,9.4,0,0,1-4.5-1.1,9.9,9.9,0,0,0,18.7-4.4A9.5,9.5,0,0,0,290,132Z"/>
        <path class="cls-7" d="M291.1,136.5A9.4,9.4,0,0,0,290,132a9.3,9.3,0,0,0-4.4-1.1,10,10,0,0,0-10,9.8,9.7,9.7,0,0,0,1.1,4.5,9.4,9.4,0,0,0,4.5,1.1A9.9,9.9,0,0,0,291.1,136.5Z"/>
      </g>
      <rect class="cls-16" x="428.9" y="158.2" width="20.1" height="11.78" rx="3.1"/>
      <path class="cls-17" d="M143.8,415l-16.4-56.7a16.7,16.7,0,0,1,16-21.3H290.3a16.7,16.7,0,0,1,16,12"/>
      <line class="cls-17" x1="148.4" y1="430.8" x2="146" y2="422.6"/>
      <line class="cls-17" x1="307.6" y1="355.1" x2="318.7" y2="392.5"/>
      <path class="cls-17" d="M214.5,249.6a37.5,37.5,0,0,1,61.3,28.9,36.4,36.4,0,0,1-4.2,17.1"/>
      <path class="cls-17" d="M259.3,309.5a37,37,0,0,1-21,6.4,37.4,37.4,0,0,1-31-58.3"/>
      <path class="cls-6" d="M499,308.5a47.3,47.3,0,0,0-31.7-55,46.2,46.2,0,0,0-14.7-2.4h-1.8V246a1.7,1.7,0,0,0-1.1-1.7,1.8,1.8,0,0,0-2,.3l-12.1,12.2a1.8,1.8,0,0,0,0,2.7l12.1,12.2a1.8,1.8,0,0,0,3.1-1.3v-5.2h1.8a34.1,34.1,0,0,1,14.7,3.4,33.4,33.4,0,0,1,18.3,35,32.8,32.8,0,0,1-7.5,16.6,2.8,2.8,0,0,0,.1,3.8l6.1,6a2.8,2.8,0,0,0,4-.1A46.6,46.6,0,0,0,499,308.5Z"/>
      <path class="cls-6" d="M406.4,288.5a47.4,47.4,0,0,0,31.8,55,47.9,47.9,0,0,0,14.6,2.3h1.8V351a1.8,1.8,0,0,0,3.1,1.3l12.1-12.2a1.8,1.8,0,0,0,0-2.7l-12.1-12.2a2,2,0,0,0-2-.4,1.9,1.9,0,0,0-1.1,1.8v5.1h-1.8a32,32,0,0,1-14.6-3.4,33.3,33.3,0,0,1-18.4-35,32.8,32.8,0,0,1,7.5-16.6,2.7,2.7,0,0,0-.1-3.7l-6-6.1a2.9,2.9,0,0,0-4.1.1A47,47,0,0,0,406.4,288.5Z"/>
      <circle class="cls-12" cx="364.1" cy="173.8" r="5.5"/>
      <circle class="cls-12" cx="380.4" cy="174.2" r="5.5"/>
      <path class="cls-17" d="M644.9,182.5a26.6,26.6,0,0,0,6.1-17,26.3,26.3,0,1,0-26.3,26.4,25.6,25.6,0,0,0,11.7-2.8"/>
      <rect class="cls-7" x="665.9" y="197.7" width="16.6" height="16.63" rx="4.9"/>
      <rect class="cls-12" x="646.5" y="214.4" width="10.4" height="10.4" rx="3"/>
    </g>
  </g>
</svg>
