<svg xmlns="http://www.w3.org/2000/svg" viewBox="0 0 266.7 200">
  <defs>
    <style>
      .cls-1 {
        fill: #071860;
      }

      .cls-2 {
        fill: #4386d6;
      }

      .cls-3 {
        fill: #f0f5f7;
      }

      .cls-4 {
        fill: #5dade8;
      }

      .cls-5 {
        fill: #fff;
      }

      .cls-6 {
        fill: #335cc1;
      }

      .cls-7 {
        fill: #55a1e5;
      }

      .cls-8 {
        fill: #dfe7ea;
      }

      .cls-9 {
        fill: #2b48a5;
      }

      .cls-10 {
        fill: #ccd8db;
      }

      .cls-11 {
        opacity: 0.2;
      }

      .cls-12 {
        fill: #347dbf;
      }

      .cls-13 {
        fill: #275ead;
      }

      .cls-14 {
        fill: #114f99;
      }
    </style>
  </defs>
  <g data-name="Layer 4">
    <g>
      <rect class="cls-1" x="75.4" y="20" width="95.9" height="141.55" rx="7.1"/>
      <g>
        <path class="cls-2" d="M185.4,37a7.1,7.1,0,0,0-7.1-7.1H96.6A7.1,7.1,0,0,0,89.5,37V47.2h95.9Z"/>
        <path class="cls-2" d="M89.5,144.9v19.5a7.1,7.1,0,0,0,7.1,7.1h81.7a7.1,7.1,0,0,0,7.1-7.1V144.9Z"/>
        <rect class="cls-3" x="89.5" y="47.2" width="95.9" height="97.67"/>
        <rect class="cls-4" x="126" y="36.6" width="23" height="3.89" rx="1.9"/>
      </g>
      <rect class="cls-5" x="113.9" y="54.3" width="60.5" height="16.99" rx="8.5"/>
      <rect class="cls-5" x="103" y="80.9" width="71.5" height="30.43" rx="8.2"/>
      <rect class="cls-5" x="113.9" y="120.5" width="60.5" height="16.99" rx="8.5"/>
      <rect class="cls-3" x="214.8" y="58.2" width="28.3" height="16.12" rx="2.1"/>
      <rect class="cls-3" x="207.7" y="45.1" width="11.3" height="6.45" rx="2.1"/>
      <rect class="cls-3" x="23.5" y="121" width="32.2" height="21.59" rx="2.1"/>
      <rect class="cls-3" x="47.1" y="105.6" width="14.5" height="7.08" rx="2.1"/>
      <rect class="cls-4" x="96.4" y="151.5" width="68.3" height="13.8" rx="6.9"/>
      <g>
        <circle class="cls-6" cx="103" cy="62.8" r="7" transform="translate(-14.2 91.2) rotate(-45)"/>
        <circle class="cls-5" cx="103" cy="61.6" r="2.8"/>
        <path class="cls-7" d="M107.4,68.2a6.8,6.8,0,0,1-4.4,1.6,6.9,6.9,0,0,1-4.4-1.5,9.7,9.7,0,0,1,2.3-4.9,2.7,2.7,0,0,0,2.1.9,3.1,3.1,0,0,0,2.1-.9A8,8,0,0,1,107.4,68.2Z"/>
      </g>
      <path class="cls-8" d="M174.5,62.8c0,.3-.1.5-.1.8a8.4,8.4,0,0,0-8.3-6.6H122.6a8.2,8.2,0,0,0-6,2.5,7.7,7.7,0,0,0-2.4,5.2,5.8,5.8,0,0,1-.3-1.9,8.5,8.5,0,0,1,8.5-8.5H166A8.5,8.5,0,0,1,174.5,62.8Z"/>
      <path class="cls-8" d="M174.5,89v1a8.2,8.2,0,0,0-8-6.5H111.3a8.2,8.2,0,0,0-8.1,8.2v13.1a4.7,4.7,0,0,1-.2-1.7V89a8.1,8.1,0,0,1,8.1-8.1h55.2A8.2,8.2,0,0,1,174.5,89Z"/>
      <path class="cls-8" d="M174.5,129c0,.3-.1.5-.1.8a8.4,8.4,0,0,0-8.3-6.6H122.6a8.6,8.6,0,0,0-6,2.4,7.9,7.9,0,0,0-2.4,5.3,6.3,6.3,0,0,1-.3-1.9,8.5,8.5,0,0,1,2.5-6,8.8,8.8,0,0,1,6-2.5H166A8.5,8.5,0,0,1,174.5,129Z"/>
      <g>
        <circle class="cls-9" cx="103" cy="129" r="7" transform="translate(-61 110.6) rotate(-45)"/>
        <circle class="cls-5" cx="103" cy="127.7" r="2.8"/>
        <path class="cls-7" d="M107.4,134.4A6.8,6.8,0,0,1,103,136a7.5,7.5,0,0,1-4.4-1.5,9.7,9.7,0,0,1,2.3-4.9,3.1,3.1,0,0,0,2.1.9,2.8,2.8,0,0,0,2.1-1A8.3,8.3,0,0,1,107.4,134.4Z"/>
      </g>
      <g>
        <circle class="cls-10" cx="123" cy="63.5" r="1.4"/>
        <circle class="cls-10" cx="129.7" cy="63.5" r="1.4"/>
        <circle class="cls-10" cx="136.4" cy="63.5" r="1.4"/>
        <circle class="cls-10" cx="143.1" cy="63.5" r="1.4"/>
        <circle class="cls-10" cx="149.9" cy="63.5" r="1.4"/>
        <rect class="cls-10" x="129.7" y="62.1" width="13.4" height="2.83"/>
      </g>
      <g>
        <circle class="cls-10" cx="111.3" cy="97.3" r="1.4"/>
        <circle class="cls-10" cx="118" cy="97.3" r="1.4"/>
        <circle class="cls-10" cx="124.7" cy="97.3" r="1.4"/>
        <circle class="cls-10" cx="131.5" cy="97.3" r="1.4"/>
        <circle class="cls-10" cx="138.2" cy="97.3" r="1.4"/>
        <rect class="cls-10" x="118" y="95.9" width="13.4" height="2.83"/>
      </g>
      <g>
        <circle class="cls-10" cx="111.3" cy="103.7" r="1.4"/>
        <circle class="cls-10" cx="118" cy="103.7" r="1.4"/>
        <circle class="cls-10" cx="124.7" cy="103.7" r="1.4"/>
        <circle class="cls-10" cx="131.5" cy="103.7" r="1.4"/>
        <circle class="cls-10" cx="138.2" cy="103.7" r="1.4"/>
        <rect class="cls-10" x="111.3" y="102.3" width="13.4" height="2.83"/>
        <rect class="cls-10" x="131.5" y="102.3" width="6.7" height="2.83"/>
      </g>
      <g>
        <circle class="cls-10" cx="124.7" cy="91" r="1.4"/>
        <circle class="cls-10" cx="131.5" cy="91" r="1.4"/>
        <circle class="cls-10" cx="138.2" cy="91" r="1.4"/>
        <circle class="cls-10" cx="161.5" cy="91" r="1.4"/>
        <path class="cls-10" d="M118,89.5h-6.7a1.5,1.5,0,0,0-1.4,1.5,1.4,1.4,0,0,0,1.4,1.4H118a1.4,1.4,0,0,0,1.4-1.4A1.5,1.5,0,0,0,118,89.5Z"/>
        <path class="cls-10" d="M155.5,89.5H144.6a1.5,1.5,0,1,0,0,2.9h10.9a1.4,1.4,0,0,0,1.4-1.4A1.5,1.5,0,0,0,155.5,89.5Z"/>
      </g>
      <g>
        <circle class="cls-10" cx="136.3" cy="130.1" r="1.4"/>
        <path class="cls-10" d="M129.5,128.7h-6.7a1.4,1.4,0,1,0,0,2.8h6.7a1.4,1.4,0,0,0,0-2.8Z"/>
      </g>
      <g class="cls-11">
        <path class="cls-12" d="M177,89.6a3.7,3.7,0,0,0-4.8,0c-8.9,8.7-19.6,12.8-33.8,12.8a3.4,3.4,0,0,0-3.4,3.4c0,2.4,0,4.7-.1,7.2-.2,9.8-.4,21.1,2.2,31.9s6.8,19,15.6,26.6h25.6a7.1,7.1,0,0,0,7.1-7.1V96.2A43.6,43.6,0,0,1,177,89.6Z"/>
      </g>
      <g>
        <path class="cls-13" d="M218.8,109.8c-.1-2.4-.1-4.8-.1-7.2a3.3,3.3,0,0,0-3.4-3.4c-14.1,0-24.8-4.1-33.7-12.8a3.6,3.6,0,0,0-4.8,0c-8.9,8.7-19.6,12.8-33.8,12.8a3.4,3.4,0,0,0-3.4,3.4c0,2.4,0,4.8-.1,7.2-.4,23.8-1.1,56.3,38.6,70l1.1.2,1.1-.2C219.9,166.1,219.3,133.7,218.8,109.8Z"/>
        <path class="cls-2" d="M218.8,105.9c-.1-2.4-.1-4.8-.1-7.2a3.3,3.3,0,0,0-3.4-3.4c-14.1,0-24.8-4-33.7-12.7a3.4,3.4,0,0,0-4.8,0c-8.9,8.7-19.6,12.7-33.8,12.7a3.4,3.4,0,0,0-3.4,3.4c0,2.4,0,4.8-.1,7.2-.4,23.8-1.1,56.3,38.6,70l1.1.2,1.1-.2C219.9,162.2,219.3,129.8,218.8,105.9Z"/>
        <path class="cls-7" d="M180.3,175.9l-1.1.2h-.1V81.6a3.8,3.8,0,0,1,2.5,1c8.9,8.7,19.6,12.7,33.7,12.7a3.3,3.3,0,0,1,3.4,3.4c0,2.4,0,4.8.1,7.2C219.3,129.8,219.9,162.2,180.3,175.9Z"/>
        <path class="cls-13" d="M187.5,120.6a8.4,8.4,0,0,0-9.3-8.3,8.4,8.4,0,0,0-3.7,15.2l-1.1,18.6a1.4,1.4,0,0,0,1.4,1.5h8.8a1.5,1.5,0,0,0,1.4-1.5l-1.1-18.6A8.3,8.3,0,0,0,187.5,120.6Z"/>
        <path class="cls-14" d="M187.5,120.6a11,11,0,0,1-.2,1.8,8.3,8.3,0,0,0-9.1-6.5,8.2,8.2,0,0,0-7.1,6.5,8.2,8.2,0,0,1-.2-2.7,8.5,8.5,0,0,1,7.3-7.4A8.4,8.4,0,0,1,187.5,120.6Z"/>
      </g>
    </g>
  </g>
</svg>
