<svg xmlns="http://www.w3.org/2000/svg" viewBox="0 0 266.7 200">
  <defs>
    <style>
      .cls-1 {
        fill: #edf4f9;
      }

      .cls-2 {
        fill: #d3e3ef;
      }

      .cls-3, .cls-6 {
        fill: none;
        stroke-linecap: round;
        stroke-miterlimit: 10;
        stroke-width: 2px;
      }

      .cls-3 {
        stroke: #aed0e5;
        stroke-dasharray: 2 6;
      }

      .cls-4 {
        fill: #fff;
      }

      .cls-5 {
        fill: #aed0e5;
      }

      .cls-6 {
        stroke: #55a1e5;
      }

      .cls-6, .cls-7 {
        opacity: 0.3;
      }

      .cls-7 {
        fill: #55a1e5;
      }

      .cls-8 {
        fill: #4386d6;
      }

      .cls-9 {
        fill: #66a9d8;
      }

      .cls-10 {
        fill: #7fbee5;
      }

      .cls-11 {
        fill: #347dbf;
        opacity: 0.4;
      }

      .cls-12 {
        fill: #5dade8;
      }
    </style>
  </defs>
  <g data-name="Layer 4">
    <g>
      <rect class="cls-1" x="54.1" y="20" width="160" height="160"/>
      <rect class="cls-2" x="60.8" y="27.4" width="145.2" height="145.2"/>
      <g>
        <line class="cls-3" x1="60.8" y1="27.6" x2="60.8" y2="172.4"/>
        <line class="cls-3" x1="84.9" y1="27.6" x2="84.9" y2="172.4"/>
        <line class="cls-3" x1="109" y1="27.6" x2="109" y2="172.4"/>
        <line class="cls-3" x1="133.1" y1="27.6" x2="133.1" y2="172.4"/>
        <line class="cls-3" x1="157.2" y1="27.6" x2="157.2" y2="172.4"/>
        <line class="cls-3" x1="181.2" y1="27.6" x2="181.2" y2="172.4"/>
        <line class="cls-3" x1="205.3" y1="27.6" x2="205.3" y2="172.4"/>
      </g>
      <g>
        <line class="cls-3" x1="60.4" y1="172" x2="205.2" y2="172"/>
        <line class="cls-3" x1="60.4" y1="148" x2="205.2" y2="148"/>
        <line class="cls-3" x1="60.4" y1="124" x2="205.2" y2="124"/>
        <line class="cls-3" x1="60.4" y1="100" x2="205.2" y2="100"/>
        <line class="cls-3" x1="60.4" y1="76" x2="205.2" y2="76"/>
        <line class="cls-3" x1="60.4" y1="52" x2="205.2" y2="52"/>
        <line class="cls-3" x1="60.4" y1="28" x2="205.2" y2="28"/>
      </g>
      <path class="cls-4" d="M178.7,95.8c0,5.8-4.7,12.6-10.5,12.7A50.8,50.8,0,0,1,155,130.1a37,37,0,0,1-12.7,7.9,29.7,29.7,0,0,1-8.9,1.5,29,29,0,0,1-8.8-1.5c-12.2-4.2-21.9-16.4-26-29.5-5.8-.1-10.5-6.9-10.5-12.7a10.7,10.7,0,0,1,8.5-10.4V80.1a36.8,36.8,0,1,1,73.6,0v5.3A10.6,10.6,0,0,1,178.7,95.8Z"/>
      <path class="cls-4" d="M175.4,172.6H91.5c7.9-14.2,22.9-23.1,32.6-27.6l.3-7a26.9,26.9,0,0,0,17.7,0l.3,6.8C152.1,149.3,167.4,158.2,175.4,172.6Z"/>
      <path class="cls-5" d="M142.3,143a28.3,28.3,0,0,1-8.7,1.4,25.8,25.8,0,0,1-8.8-1.5l-.6-.2.2-4.7a26.9,26.9,0,0,0,17.7,0Z"/>
      <g>
        <polygon class="cls-6" points="124.1 108.1 99.4 98.6 119.1 79.6 124.1 108.1"/>
        <polygon class="cls-6" points="112.1 119.7 99.4 98.6 124.1 108.1 112.1 119.7"/>
        <polygon class="cls-6" points="127.3 140.5 107.5 134.5 112.1 119.7 127.3 140.5"/>
        <polygon class="cls-6" points="99.4 98.6 95.5 118.3 112.1 119.7 99.4 98.6"/>
        <polygon class="cls-6" points="107.5 134.5 95.5 118.3 112.1 119.7 107.5 134.5"/>
        <polygon class="cls-6" points="91 50.7 103.3 61.9 129 34.8 91 50.7"/>
        <polygon class="cls-6" points="87.8 72.9 91 50.7 103.3 61.9 87.8 72.9"/>
        <polygon class="cls-6" points="99.8 98.9 87.8 72.9 103.3 61.9 99.8 98.9"/>
        <polygon class="cls-6" points="129 34.8 119.5 79.9 103.3 61.9 129 34.8"/>
        <polygon class="cls-6" points="99.8 98.9 103.3 61.9 119.5 79.9 99.8 98.9"/>
        <polygon class="cls-6" points="148.8 69.3 159.7 46.4 175.5 68.3 148.8 69.3"/>
        <line class="cls-6" x1="179.4" y1="127.5" x2="164.3" y2="145.5"/>
        <polygon class="cls-6" points="82.8 100 87.4 72.5 99.4 98.6 95.9 118.7 82.8 100"/>
        <circle class="cls-7" cx="103.1" cy="61.8" r="5.6"/>
        <circle class="cls-7" cx="112.5" cy="119.7" r="5.6"/>
        <circle class="cls-7" cx="148.6" cy="69.2" r="5.6"/>
        <circle class="cls-8" cx="148.6" cy="69.2" r="3"/>
        <circle class="cls-8" cx="159.5" cy="46.3" r="3"/>
        <circle class="cls-8" cx="175.4" cy="68.1" r="3"/>
        <circle class="cls-8" cx="179.2" cy="127.3" r="3"/>
        <circle class="cls-8" cx="164.1" cy="145.3" r="3"/>
        <circle class="cls-8" cx="90.8" cy="50.5" r="3"/>
        <circle class="cls-8" cx="128.8" cy="34.6" r="3"/>
        <circle class="cls-8" cx="119.3" cy="79.7" r="3"/>
        <circle class="cls-8" cx="123" cy="108.5" r="3"/>
        <circle class="cls-8" cx="87.6" cy="72.7" r="3"/>
        <circle class="cls-8" cx="99.6" cy="98.8" r="3"/>
        <circle class="cls-8" cx="95.9" cy="118.7" r="3"/>
        <circle class="cls-8" cx="127.3" cy="139.8" r="3"/>
        <circle class="cls-8" cx="107.5" cy="134.5" r="3"/>
        <circle class="cls-8" cx="112.5" cy="119.7" r="3"/>
        <circle class="cls-8" cx="103.1" cy="61.8" r="3"/>
      </g>
      <path class="cls-9" d="M189.8,27.4a2.2,2.2,0,0,1,2.2-2.2h15.8V40.9a2.1,2.1,0,0,1-2.1,2.1h0a2.2,2.2,0,0,1-2.2-2.1V29.5H192a2.2,2.2,0,0,1-2.2-2.1Z"/>
      <path class="cls-9" d="M189.3,172.2a2.2,2.2,0,0,0,2.2,2.2h16.3V158.1a2.2,2.2,0,0,0-2.2-2.2h0a2.2,2.2,0,0,0-2.2,2.2V170H191.5a2.2,2.2,0,0,0-2.2,2.2Z"/>
      <circle class="cls-10" cx="36.5" cy="45.6" r="2.8"/>
      <circle class="cls-10" cx="36.5" cy="56.1" r="2.8"/>
      <circle class="cls-10" cx="36.5" cy="66.7" r="2.8"/>
      <rect class="cls-2" x="218.2" y="24.2" width="2.8" height="20.5"/>
      <rect class="cls-2" x="224.2" y="24.2" width="2.8" height="20.5"/>
      <rect class="cls-2" x="230.2" y="24.2" width="2.8" height="20.5"/>
      <rect class="cls-11" x="154.2" y="80.4" width="75.1" height="32.42" rx="4.2"/>
      <rect class="cls-8" x="154" y="78.1" width="75.1" height="32.42" rx="4.2"/>
      <circle class="cls-4" cx="170" cy="94.4" r="8.4" transform="translate(-20.6 132.8) rotate(-40.4)"/>
      <g>
        <path class="cls-2" d="M213.4,87.2H187.3a2.5,2.5,0,0,0,0,5h26.1a2.5,2.5,0,0,0,0-5Z"/>
        <path class="cls-12" d="M198.1,96.6H187.5a2.5,2.5,0,0,0,0,4.9h10.6a2.5,2.5,0,1,0,0-4.9Z"/>
      </g>
      <path class="cls-9" d="M76.8,27.4a2.1,2.1,0,0,0-2.1-2.2H58.8V41.1A2.1,2.1,0,0,0,61,43.2h0a2.1,2.1,0,0,0,2.1-2.1V29.5H74.7a2.1,2.1,0,0,0,2.1-2.1Z"/>
      <path class="cls-9" d="M76.3,172.2a2.2,2.2,0,0,1-2.2,2.2H57.8v-16a2.2,2.2,0,0,1,2.2-2.2h.1a2.2,2.2,0,0,1,2.2,2.2V170H74.1a2.2,2.2,0,0,1,2.2,2.2Z"/>
      <path class="cls-8" d="M175.4,172.6H91.5c4.1-7.4,10.1-13.3,16.3-18,5.1,1.9,13.3,3.7,25.6,3.7s20.7-1.9,25.4-3.8A57.9,57.9,0,0,1,175.4,172.6Z"/>
      <g>
        <path class="cls-8" d="M61.3,135.8H49.4a1.2,1.2,0,1,0,0,2.4H61.3a1.2,1.2,0,1,0,0-2.4Z"/>
        <path class="cls-8" d="M70.9,135.8H66.6a1.2,1.2,0,0,0,0,2.4h4.3a1.2,1.2,0,0,0,0-2.4Z"/>
      </g>
    </g>
  </g>
</svg>
